<?xml version="1.0" encoding="UTF-8"?>
<svg width="50px" height="50px" viewBox="0 0 50 50" version="1.1" xmlns="http://www.w3.org/2000/svg" xmlns:xlink="http://www.w3.org/1999/xlink">
    <!-- Generator: Sketch 58 (84663) - https://sketch.com -->
    <title>Group</title>
    <desc>Created with Sketch.</desc>
    <g id="Home" stroke="none" stroke-width="1" fill="none" fill-rule="evenodd" opacity="0.5">
        <g id="Home-AK-1" transform="translate(-406.000000, -349.000000)" stroke-width="2">
            <g id="Group" transform="translate(408.000000, 351.000000)">
                <g transform="translate(10.000000, 7.000000)" id="Path">
                    <path d="M21.4509583,13.2388573 C21.4509583,8.2542782 17.1350594,4.2777996 12.0363598,4.8423949 C8.1431942,5.2734977 4.9992142,8.445488 4.5973377,12.3417779 C4.3412609,14.8244973 5.1623668,17.1142312 6.6490822,18.805874 C8.277401,20.6586381 9.1009579,22.2840806 9.1009579,24.7506906 L9.1009579,25.4388391 L16.900959,25.4388391 L16.900959,24.7532655 C16.900959,22.1929284 17.900013,20.5758573 19.5281486,18.5998765 C20.7292061,17.1422138 21.4509583,15.2756615 21.4509583,13.2388573 Z" stroke="#2461CB"></path>
                    <path d="M13.000946,0.8888388 L13.000946,2.8388386" stroke="#000000"></path>
                    <path d="M3.8085594,4.6964512 L5.1874161,6.0753098" stroke="#000000"></path>
                    <path d="M0.000947,13.8888397 L1.9509468,13.8888397" stroke="#000000"></path>
                    <path d="M3.8085594,23.0812263 L5.1874161,21.7023697" stroke="#000000"></path>
                    <path d="M22.1933365,23.0812263 L20.814476,21.7023697" stroke="#000000"></path>
                    <path d="M26.000946,13.8888397 L24.0509453,13.8888397" stroke="#000000"></path>
                    <path d="M22.1933365,4.6964512 L20.814476,6.0753098" stroke="#000000"></path>
                    <path d="M15.9009476,31.438839 L10.100975,31.438839 C9.5486908,31.438839 9.100975,30.9911232 9.100975,30.438839 L9.100975,28.438839 L16.9009475,28.438839 L16.9009475,30.438839 C16.9009475,30.9911232 16.4532318,31.438839 15.9009476,31.438839 Z" stroke="#000000"></path>
                </g>
                <path d="M23.000946,0.1638389 C23.000946,0.1638389 15.2186679,7.3498469 0.000946,12.1638389 C0.000946,12.1638389 2.000946,40.1638389 23.000946,46.1638389 C44.000946,41.1638389 46.000946,12.1638389 46.000946,12.1638389 C30.783226,7.3498468 23.000946,0.1638389 23.000946,0.1638389 Z" id="Path" stroke="#000000"></path>
            </g>
        </g>
    </g>
</svg>