<?xml version="1.0" encoding="UTF-8"?>
<svg width="212px" height="54px" viewBox="0 0 212 54" version="1.1" xmlns="http://www.w3.org/2000/svg" xmlns:xlink="http://www.w3.org/1999/xlink">
    <!-- Generator: Sketch 58 (84663) - https://sketch.com -->
    <title>Logo AK Fondo Oscuro sin padding</title>
    <desc>Created with Sketch.</desc>
    <defs>
        <polygon id="path-1" points="0.5423 0.096 18.4593 0.096 18.4593 47.3617 0.5423 47.3617"></polygon>
    </defs>
    <g id="Logo-AK-Fondo-Oscuro-sin-padding" stroke="none" stroke-width="1" fill="none" fill-rule="evenodd">
        <g id="Group-3">
            <g id="Group-2">
                <path d="M17.546155,23.6837 C17.546155,19.0297 18.847155,14.0327 18.847155,14.0327 C19.167155,12.7997 19.752155,11.1177 20.370155,9.5977 C20.473155,9.3437 20.832155,8.6047 21.301155,7.6657 L20.317155,9.5967 L0.356154976,48.7557 C-0.553845024,50.5397 0.341154976,51.9997 2.34415498,51.9997 L19.555155,51.9997 C21.557155,51.9997 24.162155,50.6767 25.344155,49.0597 C25.344155,49.0597 25.795155,48.4407 26.504155,47.3617 C25.370155,45.6357 23.572155,42.7267 21.881155,39.2467 C19.615155,34.5797 17.546155,28.8927 17.546155,23.6837" id="Fill-1" fill="#003399"></path>
                <path d="M52.641155,48.7556 L32.680155,9.5966 L31.693155,7.6616 C32.163155,8.6026 32.524155,9.3436 32.627155,9.5986 C33.244155,11.1176 33.829155,12.7996 34.150155,14.0326 C34.150155,14.0326 35.451155,19.0296 35.451155,23.6836 C35.451155,28.8706 33.400155,34.5306 31.145155,39.1856 C29.446155,42.6926 27.634155,45.6256 26.492155,47.3616 C27.201155,48.4406 27.653155,49.0596 27.653155,49.0596 C28.834155,50.6766 31.439155,51.9996 33.442155,51.9996 L50.653155,51.9996 C52.656155,51.9996 53.551155,50.5396 52.641155,48.7556" id="Fill-3" fill="#0D97FF"></path>
                <g id="Group-7" transform="translate(16.999855, 0.000000)">
                    <mask id="mask-2" fill="white">
                        <use xlink:href="#path-1"></use>
                    </mask>
                    <g id="Clip-6"></g>
                    <path d="M18.4593,23.6837 C18.4593,19.0297 17.1583,14.0327 17.1583,14.0327 C16.8383,12.7997 16.2533,11.1177 15.6353,9.5977 C15.5323,9.3437 15.1723,8.6027 14.7023,7.6617 L12.6843,3.7037 C12.5003,3.3487 12.3263,3.0147 12.1673,2.7127 L11.6623,1.7737 C11.5893,1.6297 11.0913,0.8517 11.0633,0.8197 C11.0293,0.7817 10.9973,0.7437 10.9613,0.7077 C10.9553,0.7017 10.9493,0.6977 10.9433,0.6917 C10.7713,0.5257 10.5673,0.3827 10.3413,0.2787 C10.3333,0.2747 10.1083,0.1867 10.0503,0.1697 C10.0353,0.1657 10.0213,0.1637 10.0063,0.1597 C9.9293,0.1397 9.7383,0.1077 9.7233,0.1057 C9.6483,0.0967 9.3963,0.0947 9.3463,0.0967 C9.2943,0.0997 9.1523,0.1157 9.1333,0.1187 C8.4913,0.2227 7.9483,0.6157 7.6333,1.1597 C7.5833,1.2407 6.7943,2.7837 6.3253,3.6887 L4.2973,7.6657 C3.8283,8.6047 3.4693,9.3437 3.3663,9.5977 C2.7493,11.1177 2.1643,12.7997 1.8433,14.0327 C1.8433,14.0327 0.5423,19.0297 0.5423,23.6837 C0.5423,28.8927 2.6113,34.5797 4.8783,39.2467 C6.5683,42.7267 8.3663,45.6357 9.5013,47.3617 C10.6423,45.6257 12.4543,42.6927 14.1533,39.1857 C16.4083,34.5307 18.4593,28.8707 18.4593,23.6837" id="Fill-5" fill="#005BFF" mask="url(#mask-2)"></path>
                </g>
            </g>
            <g id="Group" transform="translate(64.000000, 5.000000)" fill="#FFFFFF">
                <path d="M4.81,32.2304 C4.81,33.4784 5.211,34.4854 6.013,35.2504 C6.814,36.0174 7.892,36.3994 9.246,36.3994 C12.026,36.3994 14.894,35.0464 17.852,32.3374 L17.852,29.2914 L13.469,28.5424 C10.369,27.9734 8.151,28.0714 6.814,28.8364 C5.478,29.6034 4.81,30.7334 4.81,32.2304 M11.438,12.8284 C14.68,12.8284 17.335,13.6934 19.402,15.4204 C21.468,17.1494 22.502,19.6694 22.502,22.9834 L22.502,40.0874 L18.333,40.0874 L18.066,36.2934 C14.823,39.1794 11.526,40.6224 8.177,40.6224 C5.79,40.6224 3.83,39.8564 2.298,38.3244 C0.765,36.7924 -2.30926389e-14,34.8324 -2.30926389e-14,32.4444 C-2.30926389e-14,29.7714 1.077,27.6874 3.233,26.1914 C5.389,24.6944 8.64,24.3024 12.988,25.0144 L17.852,25.8164 L17.852,22.6624 C17.852,20.7394 17.237,19.2874 16.008,18.3064 C14.778,17.3274 13.183,16.8374 11.224,16.8374 C8.088,16.8374 5.7,18.0664 4.062,20.5254 L0.801,17.6384 C3.01,14.4324 6.556,12.8284 11.438,12.8284" id="Fill-8"></path>
                <polygon id="Fill-10" points="51.7384 36.988 51.7384 42.76 33.9924 26.832 33.9924 40.088 29.2894 40.088 29.2894 0 33.9924 0 33.9924 23.785 45.3244 13.363 51.3104 13.363 38.5364 25.122"></polygon>
                <path d="M66.3293,16.8909 C64.0483,16.8909 62.2133,17.5859 60.8243,18.9749 C59.4343,20.3649 58.5603,22.2359 58.2053,24.5869 L74.0793,24.5869 C73.8303,22.1999 73.0373,20.3209 71.7013,18.9489 C70.3643,17.5769 68.5743,16.8909 66.3293,16.8909 M78.3553,26.7259 C78.3553,27.4029 78.3373,27.9189 78.3023,28.2749 L58.0983,28.2749 C58.3473,30.8059 59.1843,32.8109 60.6103,34.2879 C62.0353,35.7679 63.9593,36.5069 66.3823,36.5069 C68.0213,36.5069 69.3933,36.1779 70.4983,35.5179 C71.6023,34.8589 72.6903,33.7099 73.7593,32.0709 L77.0723,34.3689 C74.7563,38.5379 71.1403,40.6219 66.2223,40.6219 C62.3383,40.6219 59.2473,39.3309 56.9493,36.7469 C54.6503,34.1639 53.5013,30.8409 53.5013,26.7789 C53.5013,22.7169 54.6593,19.3769 56.9753,16.7569 C59.2913,14.1379 62.3743,12.8279 66.2223,12.8279 C69.9643,12.8279 72.9213,14.1109 75.0953,16.6769 C77.2683,19.2429 78.3553,22.5929 78.3553,26.7259" id="Fill-12"></path>
                <path d="M94.444,16.8909 C92.163,16.8909 90.328,17.5859 88.938,18.9749 C87.549,20.3649 86.675,22.2359 86.32,24.5869 L102.194,24.5869 C101.945,22.1999 101.152,20.3209 99.816,18.9489 C98.479,17.5769 96.689,16.8909 94.444,16.8909 M106.47,26.7259 C106.47,27.4029 106.452,27.9189 106.417,28.2749 L86.213,28.2749 C86.462,30.8059 87.299,32.8109 88.725,34.2879 C90.15,35.7679 92.074,36.5069 94.497,36.5069 C96.136,36.5069 97.508,36.1779 98.613,35.5179 C99.717,34.8589 100.805,33.7099 101.873,32.0709 L105.187,34.3689 C102.871,38.5379 99.254,40.6219 94.337,40.6219 C90.453,40.6219 87.362,39.3309 85.063,36.7469 C82.765,34.1639 81.616,30.8409 81.616,26.7789 C81.616,22.7169 82.774,19.3769 85.09,16.7569 C87.406,14.1379 90.489,12.8279 94.337,12.8279 C98.079,12.8279 101.036,14.1109 103.21,16.6769 C105.383,19.2429 106.47,22.5929 106.47,26.7259" id="Fill-14"></path>
                <path d="M114.0329,38.4043 C112.5539,36.9263 111.8149,34.9923 111.8149,32.6053 L111.8149,0.0003 L116.5189,0.0003 L116.5719,32.6053 C116.5719,35.2423 117.7479,36.5603 120.0999,36.5603 C121.2399,36.5603 122.2019,36.1503 122.9859,35.3313 L125.6049,38.5373 C124.2869,39.9273 122.4159,40.6223 119.9929,40.6223 C117.4979,40.6223 115.5119,39.8833 114.0329,38.4043 Z" id="Fill-16"></path>
                <path d="M131.2705,32.2304 C131.2705,33.4784 131.6715,34.4854 132.4735,35.2504 C133.2745,36.0174 134.3525,36.3994 135.7065,36.3994 C138.4865,36.3994 141.3545,35.0464 144.3125,32.3374 L144.3125,29.2914 L139.9295,28.5424 C136.8295,27.9734 134.6115,28.0714 133.2745,28.8364 C131.9385,29.6034 131.2705,30.7334 131.2705,32.2304 M137.8985,12.8284 C141.1405,12.8284 143.7955,13.6934 145.8625,15.4204 C147.9285,17.1494 148.9625,19.6694 148.9625,22.9834 L148.9625,40.0874 L144.7935,40.0874 L144.5265,36.2934 C141.2835,39.1794 137.9865,40.6224 134.6375,40.6224 C132.2505,40.6224 130.2905,39.8564 128.7585,38.3244 C127.2255,36.7924 126.4605,34.8324 126.4605,32.4444 C126.4605,29.7714 127.5375,27.6874 129.6935,26.1914 C131.8495,24.6944 135.1005,24.3024 139.4485,25.0144 L144.3125,25.8164 L144.3125,22.6624 C144.3125,20.7394 143.6975,19.2874 142.4685,18.3064 C141.2385,17.3274 139.6435,16.8374 137.6845,16.8374 C134.5485,16.8374 132.1605,18.0664 130.5225,20.5254 L127.2615,17.6384 C129.4705,14.4324 133.0165,12.8284 137.8985,12.8284" id="Fill-18"></path>
            </g>
        </g>
    </g>
</svg>