<svg width="34" height="50" viewBox="0 0 34 50" fill="none" xmlns="http://www.w3.org/2000/svg">
<path d="M30.6904 0H11.2531C10.5838 0 9.94181 0.265545 9.46865 0.739059C8.99514 1.21215 8.72959 1.85414 8.72959 2.52349V26.7192C7.39767 27.1386 6.14566 27.778 5.0251 28.6108C3.29617 29.8154 1.97134 33.5859 0.97727 40.0553C0.272662 44.6572 0.0016617 49 0.0016617 49.042C-0.0134635 49.2912 0.0751898 49.5349 0.246191 49.7164C0.417191 49.8979 0.655846 50.0004 0.904999 50H8.85609C9.35482 50 9.75943 49.5954 9.75943 49.0962V46.7232C10.2472 46.3619 11.217 45.6212 12.7291 44.38C13.4643 43.7838 14.1097 43.0838 14.6442 42.302H30.6911C31.3605 42.302 32.0024 42.036 32.4756 41.5629C32.9487 41.0894 33.2146 40.4478 33.2146 39.7785V2.52379C33.2146 1.85447 32.9487 1.21252 32.4756 0.73936C32.0025 0.265846 31.3605 0.000301168 30.6911 0.000301168L30.6904 0ZM11.2531 1.80713L30.6904 1.80671C31.0861 1.80671 31.4071 2.12771 31.4071 2.5235V6.02341H10.5361V2.5235C10.5361 2.12771 10.8571 1.80671 11.2529 1.80671L11.2531 1.80713ZM31.4078 36.0501H18.9329L19.3304 35.6224C20.2157 34.6707 21.1375 33.6947 21.0833 32.6468H28.5583C29.057 32.6468 29.4617 32.2422 29.4617 31.7431V24.9487C29.4591 24.2819 29.2406 23.634 28.839 23.1021C28.4369 22.5697 27.8734 22.1824 27.2331 21.9974L25.4802 21.4975C25.9936 20.3634 26.2428 19.1278 26.2092 17.8832C26.2079 17.4971 26.1856 17.111 26.1428 16.7269V16.6849V16.5463V16.3715C26.1188 16.2068 26.0907 16.0463 26.0583 15.8895V15.769C26.018 15.5921 25.9739 15.4215 25.926 15.2568V15.1967C25.6016 13.9677 24.8193 12.9098 23.7395 12.2392L23.6853 12.209C23.5609 12.1367 23.4323 12.0724 23.2996 12.0161L23.1971 11.9741L22.8298 11.8354L22.6311 11.7934L22.2639 11.7031L22.1071 11.667L21.7156 11.6128H21.5588H20.9866C20.7227 11.614 20.4593 11.6325 20.1975 11.667H19.9866C19.7652 11.7014 19.5459 11.7497 19.3303 11.8115L19.1438 11.8716L19.1434 11.872C18.9774 11.9291 18.8144 11.9951 18.6556 12.0707L18.3967 12.2031C18.2703 12.2754 18.1497 12.3535 18.0295 12.438H18.0291C17.9018 12.5279 17.7791 12.6245 17.6619 12.7275C17.5774 12.7997 17.4993 12.872 17.4211 12.9501C17.343 13.0283 17.2526 13.1249 17.1741 13.2211C17.0959 13.3173 17.0295 13.4077 16.9573 13.5043H16.9568C16.8459 13.6573 16.7434 13.8161 16.6497 13.9799C16.5896 14.0825 16.5354 14.1909 16.4812 14.2993C16.427 14.4077 16.3787 14.5161 16.3308 14.6303V14.6308C16.2434 14.8413 16.167 15.0564 16.1018 15.2753V15.3534C16.1001 15.3854 16.1001 15.4177 16.1018 15.4497C15.8913 16.2517 15.788 17.0782 15.7947 17.9076C15.7623 19.1509 16.0094 20.3862 16.5174 21.5215L14.7708 22.0214C14.1301 22.2063 13.5667 22.5941 13.1649 23.1261C12.7628 23.658 12.5443 24.3063 12.5418 24.9731V31.7431C12.5418 32.2422 12.9464 32.6468 13.4456 32.6468H13.596C13.4636 32.7914 13.325 32.9418 13.1985 33.0985C12.5338 33.925 11.5759 34.4624 10.5242 34.5984V7.82984H31.4071L31.4078 36.0501ZM16.1503 28.6712C15.6516 28.6712 15.247 29.0759 15.247 29.5746V30.8397H14.2831V24.9486C14.2903 24.3894 14.6617 23.9003 15.1987 23.744L17.6078 23.0575H17.6082C18.5645 23.8121 19.7477 24.2226 20.9662 24.2226C22.1846 24.2226 23.3678 23.8121 24.3241 23.0575L26.7332 23.7503L26.7337 23.7499C27.2706 23.9066 27.6425 24.3957 27.6492 24.9549V30.8397H26.6853V29.5745C26.6853 29.0758 26.2807 28.6712 25.782 28.6712C25.2829 28.6712 24.8782 29.0758 24.8782 29.5745V30.8397H19.9271C19.3406 30.4103 18.6234 30.1972 17.8973 30.2372C17.6142 30.2577 17.3335 30.3061 17.06 30.3817V29.5746C17.06 29.3342 16.9642 29.1032 16.7932 28.9338C16.6226 28.7641 16.3911 28.6696 16.1503 28.6712V28.6712ZM17.9574 15.4198C17.9995 15.3055 18.0478 15.203 18.0961 15.1005C18.1444 14.9979 18.1625 14.9559 18.2045 14.8895L18.2587 14.7992C18.644 14.1375 19.2843 13.6627 20.0297 13.4862H20.1141C20.2351 13.4576 20.3578 13.4358 20.4814 13.4198C20.6532 13.4001 20.8263 13.39 20.9994 13.39C21.162 13.3808 21.3246 13.3808 21.4872 13.39H21.6015C21.7158 13.39 21.8305 13.4261 21.9326 13.4501H22.0355C22.1393 13.477 22.2418 13.5089 22.3427 13.5463L22.4208 13.5824L22.6074 13.6728H22.5771H22.5775C22.3334 13.7114 22.1154 13.8488 21.975 14.0522C21.4297 14.8614 20.5801 15.4152 19.62 15.5882L18.1141 15.8651L17.8973 15.4735L17.9574 15.4198ZM17.6444 17.7689H17.8129L19.9574 17.3714C21.0251 17.1752 22.0091 16.663 22.7822 15.9017L24.3843 17.2449V17.8953C24.3843 19.9553 23.7818 22.4129 20.9508 22.4129H20.9512C20.0163 22.4705 19.1083 22.0898 18.4936 21.3827C17.7953 20.3617 17.46 19.1356 17.542 17.9013V17.7807L17.6444 17.7689ZM11.5849 42.9822C9.37441 44.7893 8.34419 45.5178 8.33827 45.5242C8.09626 45.6935 7.95257 45.9699 7.95257 46.2649V48.1926H1.86905C2.33879 41.6633 3.80848 31.7003 6.08532 30.0686C6.89749 29.4665 7.78693 28.9763 8.72981 28.6111V35.5256C8.72686 35.6323 8.74325 35.7382 8.7777 35.8391C8.81426 35.929 8.8651 36.0122 8.92854 36.0861C8.99282 36.1554 9.06803 36.2143 9.15122 36.2605H9.18735C9.27432 36.3059 9.3676 36.3361 9.46466 36.3508C11.4171 36.5012 13.3192 35.684 14.554 34.1643C15.1124 33.4606 15.8019 32.8714 16.5842 32.4299C16.9922 32.195 17.4464 32.0509 17.9153 32.0081C18.3094 31.969 18.7005 32.1081 18.9812 32.3875C19.2883 32.6946 19.3728 32.779 17.9333 34.3269C17.4212 34.8752 16.7947 35.5315 16.1687 36.3688L16.0242 36.5554L16.0237 36.5558C15.3011 37.5343 14.6452 38.5608 14.0603 39.6276C13.4776 40.9062 12.6343 42.049 11.5847 42.9825L11.5849 42.9822ZM30.6909 40.4944L15.7464 40.4948C16.2519 39.5818 16.8132 38.7007 17.427 37.8563H31.4078V39.778C31.4078 40.1738 31.0868 40.4948 30.691 40.4948L30.6909 40.4944ZM19.7638 4.22175V3.61924V3.61966C19.7604 3.37933 19.8537 3.14783 20.0222 2.97723C20.1911 2.80623 20.4213 2.71001 20.6612 2.71001H21.2638C21.5016 2.71001 21.7301 2.80455 21.8982 2.97261C22.0667 3.14109 22.1612 3.36924 22.1612 3.60746V4.20998V4.20956C22.1679 4.70324 21.7751 5.10954 21.2818 5.1192H20.6793C20.4381 5.12424 20.2054 5.0318 20.0331 4.8629C19.8608 4.694 19.7638 4.4629 19.7638 4.22174L19.7638 4.22175ZM23.4923 39.1574C23.4923 39.6566 23.0877 40.0608 22.5889 40.0608H19.3542C18.8554 40.0608 18.4508 39.6566 18.4508 39.1574C18.4508 38.6583 18.8554 38.2541 19.3542 38.2541H22.5948C22.8364 38.2554 23.0675 38.3537 23.2364 38.5272C23.4049 38.7003 23.4973 38.9339 23.4923 39.1755L23.4923 39.1574Z" fill="#7A7A7A"/>
</svg>
