<svg width="168" height="156" viewBox="0 0 168 156" fill="none" xmlns="http://www.w3.org/2000/svg">
<path d="M87.8194 103.869L80.6505 103.869C78.6785 103.869 76.9036 102.791 76.022 101.027C75.3376 99.647 74.456 97.8374 73.4701 95.7377L61.1969 108.011C60.1992 109.009 58.7376 109.403 57.3688 109.032C56 108.661 54.9443 107.582 54.5964 106.213L50.4205 89.8567C49.3881 85.8082 50.5598 81.5277 53.5063 78.5813L63.0534 69.0342C62.8678 68.2917 62.717 67.5841 62.5778 66.8881C58.0656 43.3745 71.754 28.7581 81.7535 21.8674C83.3427 20.7654 85.4424 20.7769 87.0432 21.8673C97.0541 28.7694 110.719 43.3855 106.218 66.8876C106.09 67.572 105.928 68.2912 105.742 69.0336L115.289 78.5805C118.235 81.5269 119.419 85.819 118.375 89.8559L114.198 106.212C113.85 107.581 112.795 108.66 111.426 109.031C110.057 109.402 108.607 109.02 107.598 108.01L95.1625 95.5751C94.0952 97.7791 93.1324 99.67 92.4016 101.097C91.5199 102.814 89.7451 103.869 87.8078 103.881L87.8194 103.869ZM89.0381 52.3295C91.6018 49.7658 91.6018 45.613 89.0382 43.0493C86.4746 40.4857 82.3217 40.4858 79.758 43.0494C77.1943 45.6131 77.1943 49.766 79.7579 52.3296C82.3215 54.8932 86.4744 54.8932 89.0381 52.3295Z" fill="#6E777E"/>
<circle cx="84.5" cy="48.5" r="7.5" fill="#F6CA2D"/>
<path d="M159.979 0.632742C159.799 0.246066 159.417 0 158.998 0C158.578 0 158.2 0.246066 158.016 0.632742L155.824 5.28339L150.929 6.02862C150.52 6.0919 150.179 6.38718 150.053 6.79143C149.927 7.19568 150.029 7.64211 150.322 7.94091L153.874 11.5651L153.036 16.6868C152.968 17.1086 153.138 17.5375 153.475 17.7871C153.813 18.0367 154.259 18.0683 154.628 17.8679L159.001 15.46L163.374 17.8679C163.742 18.0683 164.189 18.0402 164.527 17.7871C164.864 17.534 165.034 17.1086 164.966 16.6868L164.124 11.5651L167.676 7.94091C167.969 7.64211 168.075 7.19568 167.945 6.79143C167.816 6.38718 167.478 6.0919 167.069 6.02862L162.171 5.28339L159.979 0.632742Z" fill="white"/>
<path d="M9.97926 40.6327C9.7986 40.2461 9.41683 40 8.99755 40C8.57828 40 8.19991 40.2461 8.01584 40.6327L5.82403 45.2834L0.929098 46.0286C0.52005 46.0919 0.179178 46.3872 0.053055 46.7914C-0.0730679 47.1957 0.0291938 47.6421 0.322344 47.9409L3.87424 51.5651L3.03569 56.6868C2.96752 57.1086 3.13795 57.5375 3.47542 57.7871C3.81288 58.0367 4.25942 58.0683 4.62756 57.8679L9.00096 55.46L13.3744 57.8679C13.7425 58.0683 14.189 58.0402 14.5265 57.7871C14.864 57.534 15.0344 57.1086 14.9662 56.6868L14.1243 51.5651L17.6762 47.9409C17.9693 47.6421 18.075 47.1957 17.9455 46.7914C17.8159 46.3872 17.4785 46.0919 17.0694 46.0286L12.1711 45.2834L9.97926 40.6327Z" fill="white"/>
<path d="M82.25 154.276C82.25 155.996 84.4849 156.644 85.4693 155.218C94.5 142.136 81.6667 141.547 81.6667 135.187C81.6667 132.613 83.7893 130.529 86.3953 130.563C88.9598 130.596 91 132.715 91 135.256V141.436C91 143.004 92.9301 143.765 94.0209 142.628C95.9729 140.596 98 137.115 98 132.875C98 125.224 91.7197 119 84 119C76.2803 119 70 125.224 70 132.875C70 145.181 82.25 146.822 82.25 154.276Z" fill="#F6CA2D"/>
</svg>
