<svg width="51" height="39" viewBox="0 0 51 39" fill="none" xmlns="http://www.w3.org/2000/svg">
<path d="M47.3421 5.31579H24.0263C23.0789 5.31579 22.1316 4.89474 21.5526 4.10526L19.2368 1.21053C18.6579 0.473684 17.7105 0 16.7632 0H3.65789C1.92105 0 0.5 1.42105 0.5 3.15789V35.7368C0.5 37.4737 1.92105 38.8947 3.65789 38.8947H47.3421C49.0789 38.8947 50.5 37.4737 50.5 35.7368V8.47368C50.5 6.73684 49.0789 5.31579 47.3421 5.31579ZM34.1842 19.0526L25.2895 28.4737C24.8158 28.9474 24.2368 29.2105 23.5526 29.2105C22.9211 29.2105 22.2895 28.9474 21.8158 28.4737L16.7632 23.1579C15.8684 22.2105 15.9211 20.6842 16.8684 19.7895C17.8158 18.8947 19.3421 18.9474 20.2368 19.8947L23.5526 23.4211L30.7632 15.7895C31.6579 14.8421 33.1842 14.7895 34.1316 15.6842C35.0789 16.5789 35.1316 18.1053 34.1842 19.0526Z" fill="#0D97FF"/>
</svg>
