<svg width="368" height="206" viewBox="0 0 368 206" fill="none" xmlns="http://www.w3.org/2000/svg">
<rect x="18" width="343" height="206" fill="#F9F9F9"/>
<path d="M22.2143 166C26.385 166 29.7653 162.643 29.7653 158.5C29.7653 154.357 26.385 151 22.2143 151C18.0435 151 14.6633 154.357 14.6633 158.5C14.6633 162.643 18.0435 166 22.2143 166ZM27.8658 167.91L25.0459 179.125L23.1582 171.156L25.0459 167.875H19.3827L21.2704 171.156L19.3827 179.125L16.5628 167.91C12.3567 168.109 9 171.525 9 175.75V178.188C9 179.74 10.2683 181 11.8316 181H32.5969C34.1602 181 35.4286 179.74 35.4286 178.188V175.75C35.4286 171.525 32.0719 168.109 27.8658 167.91V167.91Z" fill="#E5E5E5"/>
<path d="M244 88C235.71 88 229 94.7088 229 103C229 111.29 235.709 118 244 118C246.913 118 249.767 117.145 252.19 115.567C252.916 115.094 253.075 114.098 252.526 113.428L251.91 112.676C251.446 112.109 250.629 111.97 250.013 112.366C248.229 113.509 246.136 114.129 244 114.129C237.863 114.129 232.871 109.137 232.871 103C232.871 96.8634 237.863 91.871 244 91.871C250.057 91.871 255.129 95.356 255.129 101.548C255.129 103.894 253.853 106.371 251.611 106.61C250.561 106.583 250.588 105.833 250.796 104.794L252.213 97.4693C252.386 96.5736 251.7 95.7419 250.788 95.7419H248.067C247.866 95.7419 247.672 95.8159 247.523 95.9497C247.373 96.0835 247.277 96.2677 247.255 96.4673L247.254 96.4729C246.365 95.3902 244.808 95.1558 243.627 95.1558C239.116 95.1558 235.29 98.92 235.29 104.317C235.29 108.267 237.515 110.72 241.097 110.72C242.729 110.72 244.567 109.774 245.633 108.402C246.208 110.464 248.089 110.464 249.909 110.464C256.497 110.464 259 106.133 259 101.548C259 93.3016 252.348 88 244 88ZM242.689 106.413C241.343 106.413 240.507 105.468 240.507 103.947C240.507 101.226 242.369 99.5482 244.053 99.5482C245.402 99.5482 246.207 100.47 246.207 102.014C246.207 104.74 244.158 106.413 242.689 106.413Z" fill="#999999"/>
<path d="M172.144 109.199L165.582 106.387C165.301 106.267 164.99 106.242 164.694 106.315C164.398 106.388 164.134 106.555 163.941 106.791L161.035 110.342C156.474 108.191 152.803 104.52 150.652 99.9593L154.203 97.0529C154.44 96.8606 154.607 96.5964 154.68 96.3003C154.753 96.0043 154.728 95.6926 154.608 95.4123L151.795 88.8497C151.663 88.5476 151.43 88.3009 151.136 88.1522C150.842 88.0035 150.505 87.9622 150.184 88.0352L144.09 89.4415C143.78 89.513 143.504 89.6875 143.306 89.9364C143.108 90.1853 143 90.494 143 90.812C143 105.842 155.182 118 170.188 118C170.506 118 170.815 117.893 171.064 117.695C171.313 117.497 171.488 117.22 171.559 116.91L172.965 110.816C173.038 110.493 172.996 110.155 172.846 109.86C172.696 109.565 172.448 109.331 172.144 109.199V109.199Z" fill="#999999"/>
<path d="M118.429 171.357C118.429 171.949 117.949 172.429 117.357 172.429H110.929C110.337 172.429 109.857 171.949 109.857 171.357V168.143H97V177.786C97 179.5 98.5 181 100.214 181H128.071C129.786 181 131.286 179.5 131.286 177.786V168.143H118.429V171.357ZM128.071 157.429H122.714V154.214C122.714 152.5 121.214 151 119.5 151H108.786C107.071 151 105.571 152.5 105.571 154.214V157.429H100.214C98.5 157.429 97 158.929 97 160.643V166H131.286V160.643C131.286 158.929 129.786 157.429 128.071 157.429ZM118.429 157.429H109.857V155.286H118.429V157.429Z" fill="#E5E5E5"/>
<path d="M203.547 179.125H202.375V152.406C202.375 151.63 201.745 151 200.969 151H181.281C180.505 151 179.875 151.63 179.875 152.406V179.125H178.703C178.315 179.125 178 179.44 178 179.828V181H204.25V179.828C204.25 179.44 203.935 179.125 203.547 179.125ZM185.5 155.453C185.5 155.065 185.815 154.75 186.203 154.75H188.547C188.935 154.75 189.25 155.065 189.25 155.453V157.797C189.25 158.185 188.935 158.5 188.547 158.5H186.203C185.815 158.5 185.5 158.185 185.5 157.797V155.453ZM185.5 161.078C185.5 160.69 185.815 160.375 186.203 160.375H188.547C188.935 160.375 189.25 160.69 189.25 161.078V163.422C189.25 163.81 188.935 164.125 188.547 164.125H186.203C185.815 164.125 185.5 163.81 185.5 163.422V161.078ZM188.547 169.75H186.203C185.815 169.75 185.5 169.435 185.5 169.047V166.703C185.5 166.315 185.815 166 186.203 166H188.547C188.935 166 189.25 166.315 189.25 166.703V169.047C189.25 169.435 188.935 169.75 188.547 169.75ZM193 179.125H189.25V174.203C189.25 173.815 189.565 173.5 189.953 173.5H192.297C192.685 173.5 193 173.815 193 174.203V179.125ZM196.75 169.047C196.75 169.435 196.435 169.75 196.047 169.75H193.703C193.315 169.75 193 169.435 193 169.047V166.703C193 166.315 193.315 166 193.703 166H196.047C196.435 166 196.75 166.315 196.75 166.703V169.047ZM196.75 163.422C196.75 163.81 196.435 164.125 196.047 164.125H193.703C193.315 164.125 193 163.81 193 163.422V161.078C193 160.69 193.315 160.375 193.703 160.375H196.047C196.435 160.375 196.75 160.69 196.75 161.078V163.422ZM196.75 157.797C196.75 158.185 196.435 158.5 196.047 158.5H193.703C193.315 158.5 193 158.185 193 157.797V155.453C193 155.065 193.315 154.75 193.703 154.75H196.047C196.435 154.75 196.75 155.065 196.75 155.453V157.797Z" fill="#E5E5E5"/>
<path d="M325.094 117.395C316.58 105.053 315 103.786 315 99.25C315 93.0368 320.037 88 326.25 88C332.463 88 337.5 93.0368 337.5 99.25C337.5 103.786 335.92 105.053 327.406 117.395C326.847 118.202 325.652 118.202 325.094 117.395ZM326.25 103.937C328.839 103.937 330.937 101.839 330.937 99.25C330.937 96.6612 328.839 94.5625 326.25 94.5625C323.661 94.5625 321.562 96.6612 321.562 99.25C321.562 101.839 323.661 103.937 326.25 103.937Z" fill="#999999"/>
<path d="M83.9375 91.75H75.5V97.375H64.25V91.75H55.8125C54.2598 91.75 53 93.0098 53 94.5625V115.188C53 116.74 54.2598 118 55.8125 118H83.9375C85.4902 118 86.75 116.74 86.75 115.188V94.5625C86.75 93.0098 85.4902 91.75 83.9375 91.75ZM69.875 101.125C71.9434 101.125 73.625 102.807 73.625 104.875C73.625 106.943 71.9434 108.625 69.875 108.625C67.8066 108.625 66.125 106.943 66.125 104.875C66.125 102.807 67.8066 101.125 69.875 101.125ZM75.3418 114.25H64.4082C63.7988 114.25 63.3066 113.664 63.4941 113.09C63.9805 111.59 65.3926 110.5 67.0625 110.5H67.543C68.2637 110.799 69.0488 110.969 69.875 110.969C70.7012 110.969 71.4922 110.799 72.207 110.5H72.6875C74.3516 110.5 75.7637 111.584 76.2559 113.09C76.4434 113.664 75.9512 114.25 75.3418 114.25V114.25ZM73.625 89.875C73.625 88.8379 72.7871 88 71.75 88H68C66.9629 88 66.125 88.8379 66.125 89.875V95.5H73.625V89.875Z" fill="#999999"/>
<path d="M103 48.8571C103 50.0404 103.96 51 105.143 51H143.714C144.898 51 145.857 50.0404 145.857 48.8571V27.4286H103V48.8571ZM133 34.9286C133 34.3366 133.479 33.8571 134.071 33.8571H140.5C141.092 33.8571 141.571 34.3366 141.571 34.9286V37.0714C141.571 37.6634 141.092 38.1429 140.5 38.1429H134.071C133.479 38.1429 133 37.6634 133 37.0714V34.9286ZM133 42.9643C133 42.6683 133.24 42.4286 133.536 42.4286H141.036C141.332 42.4286 141.571 42.6683 141.571 42.9643V44.0357C141.571 44.3317 141.332 44.5714 141.036 44.5714H133.536C133.24 44.5714 133 44.3317 133 44.0357V42.9643ZM107.286 36.5357C107.286 36.2397 107.525 36 107.821 36H128.179C128.475 36 128.714 36.2397 128.714 36.5357V37.6071C128.714 37.9031 128.475 38.1429 128.179 38.1429H107.821C107.525 38.1429 107.286 37.9031 107.286 37.6071V36.5357ZM107.286 42.9643C107.286 42.6683 107.525 42.4286 107.821 42.4286H119.607C119.903 42.4286 120.143 42.6683 120.143 42.9643V44.0357C120.143 44.3317 119.903 44.5714 119.607 44.5714H107.821C107.525 44.5714 107.286 44.3317 107.286 44.0357V42.9643ZM144.786 21H104.071C103.479 21 103 21.4795 103 22.0714V25.2857H145.857V22.0714C145.857 21.4795 145.378 21 144.786 21Z" fill="#E5E5E5"/>
<path d="M236.143 27.4286V28.5C236.143 28.6421 236.086 28.7784 235.986 28.8788C235.885 28.9793 235.749 29.0357 235.607 29.0357H234V29.8393C234 30.2831 233.64 30.6429 233.196 30.6429H206.946C206.503 30.6429 206.143 30.2831 206.143 29.8393V29.0357H204.536C204.394 29.0357 204.257 28.9793 204.157 28.8788C204.056 28.7784 204 28.6421 204 28.5V27.4286C204 27.3226 204.031 27.219 204.09 27.1309C204.149 27.0428 204.233 26.9741 204.331 26.9336L219.867 21.0407C219.998 20.9864 220.145 20.9864 220.276 21.0407L235.812 26.9336C235.91 26.9741 235.994 27.0428 236.053 27.1309C236.111 27.219 236.143 27.3226 236.143 27.4286V27.4286ZM234.536 47.7857H205.607C204.72 47.7857 204 48.5052 204 49.3929V50.4643C204 50.6064 204.056 50.7426 204.157 50.8431C204.257 50.9436 204.394 51 204.536 51H235.607C235.749 51 235.885 50.9436 235.986 50.8431C236.086 50.7426 236.143 50.6064 236.143 50.4643V49.3929C236.143 48.5052 235.423 47.7857 234.536 47.7857ZM209.357 31.7143V44.5714H206.946C206.503 44.5714 206.143 44.9312 206.143 45.375V46.7143H234V45.375C234 44.9312 233.64 44.5714 233.196 44.5714H230.786V31.7143H226.5V44.5714H222.214V31.7143H217.929V44.5714H213.643V31.7143H209.357Z" fill="#E5E5E5"/>
<path d="M296.534 48.313C293.11 44.7804 293.174 39.0839 296.615 35.5641L308.906 22.9922C311.502 20.336 315.723 20.3358 318.32 22.9922C320.892 25.6227 320.895 29.867 318.32 32.5006L307.606 43.4489C305.857 45.2382 302.999 45.2132 301.279 43.3904C299.622 41.6344 299.676 38.851 301.364 37.1237L309.787 28.5201C310.149 28.1501 310.742 28.1438 311.112 28.5059L312.452 29.8172C312.822 30.1794 312.828 30.773 312.466 31.1429L304.045 39.7457C303.756 40.0413 303.738 40.5325 304.007 40.8175C304.263 41.089 304.665 41.0936 304.926 40.8272L315.64 29.8789C316.789 28.7034 316.789 26.7896 315.639 25.6134C314.515 24.4634 312.712 24.4628 311.587 25.6134L299.296 38.1853C297.259 40.2689 297.228 43.6415 299.226 45.7036C301.219 47.7598 304.44 47.7624 306.437 45.7203L316.519 35.4079C316.88 35.0377 317.474 35.031 317.844 35.3929L319.185 36.7033C319.555 37.0652 319.562 37.6588 319.2 38.029L309.118 48.3414C305.627 51.912 299.981 51.8697 296.534 48.313V48.313Z" fill="#E5E5E5"/>
<path d="M26.2656 21H3.73437C1.67187 21 0 22.6719 0 24.7344V47.2656C0 49.3281 1.67187 51 3.73437 51H26.2656C28.3281 51 30 49.3281 30 47.2656V24.7344C30 22.6719 28.3281 21 26.2656 21ZM41.0625 23.9453L32.5 29.8516V42.1484L41.0625 48.0469C42.7187 49.1875 45 48.0234 45 46.0312V25.9609C45 23.9766 42.7266 22.8047 41.0625 23.9453Z" fill="#E5E5E5"/>
<path d="M258.031 155.219C258.031 152.889 259.92 151 262.25 151C264.58 151 266.469 152.889 266.469 155.219C266.469 157.549 264.58 159.438 262.25 159.438C259.92 159.438 258.031 157.549 258.031 155.219ZM272.951 155.299C272.219 154.567 271.031 154.567 270.299 155.299L265.223 160.375H259.277L254.201 155.299C253.469 154.567 252.281 154.567 251.549 155.299C250.817 156.031 250.817 157.219 251.549 157.951L257.094 163.495V179.125C257.094 180.161 257.933 181 258.969 181H259.906C260.942 181 261.781 180.161 261.781 179.125V172.562H262.719V179.125C262.719 180.161 263.558 181 264.594 181H265.531C266.567 181 267.406 180.161 267.406 179.125V163.495L272.951 157.951C273.683 157.219 273.683 156.031 272.951 155.299V155.299Z" fill="#E5E5E5"/>
<path d="M364.25 156H349.25L344.25 151H331.75C329.679 151 328 152.679 328 154.75V177.25C328 179.321 329.679 181 331.75 181H364.25C366.321 181 368 179.321 368 177.25V159.75C368 157.679 366.321 156 364.25 156Z" fill="#E5E5E5"/>
</svg>
