<svg width="2307" height="771" viewBox="0 0 2307 771" fill="none" xmlns="http://www.w3.org/2000/svg">
<g clip-path="url(#clip0)">
<path d="M848.045 801.306L680.647 540.556C677.224 535.224 671.33 532 665 532C658.67 532 652.776 535.224 649.353 540.556L481.955 801.306C480.148 804.12 479.132 807.368 479.012 810.711C478.892 814.054 479.674 817.367 481.274 820.303C482.876 823.239 485.237 825.688 488.11 827.394C490.983 829.1 494.261 830 497.602 830H832.398C839.205 830 845.465 826.281 848.726 820.298C850.326 817.363 851.108 814.05 850.988 810.708C850.868 807.366 849.852 804.118 848.045 801.306ZM665 585.07L714.632 662.375H665L627.8 699.625L605.678 677.473L665 585.07Z" fill="#AEAEAE"/>
<path d="M2284.05 801.306L2116.65 540.556C2113.22 535.224 2107.33 532 2101 532C2094.67 532 2088.78 535.224 2085.35 540.556L1917.95 801.306C1916.15 804.12 1915.13 807.368 1915.01 810.711C1914.89 814.054 1915.67 817.367 1917.27 820.303C1918.88 823.239 1921.24 825.688 1924.11 827.394C1926.98 829.1 1930.26 830 1933.6 830H2268.4C2275.2 830 2281.46 826.281 2284.73 820.298C2286.33 817.363 2287.11 814.05 2286.99 810.708C2286.87 807.366 2285.85 804.118 2284.05 801.306ZM2101 585.07L2150.63 662.375H2101L2063.8 699.625L2041.68 677.473L2101 585.07Z" fill="#AEAEAE"/>
<path d="M385.44 231.184C386.183 229.25 386.6 227.134 386.6 224.929C386.6 215.346 378.806 207.571 369.2 207.571C365.629 207.571 362.294 208.656 359.539 210.5C354.519 201.822 345.148 196 334.4 196C318.378 196 305.4 208.946 305.4 224.929C305.4 225.417 305.418 225.905 305.436 226.393C295.286 229.955 288 239.61 288 250.964C288 265.338 299.691 277 314.1 277H380.8C393.614 277 404 266.64 404 253.857C404 242.665 396.025 233.318 385.44 231.184Z" fill="#AEAEAE"/>
<path d="M1463.44 150.184C1464.18 148.25 1464.6 146.134 1464.6 143.929C1464.6 134.346 1456.81 126.571 1447.2 126.571C1443.63 126.571 1440.29 127.656 1437.54 129.5C1432.52 120.822 1423.15 115 1412.4 115C1396.38 115 1383.4 127.946 1383.4 143.929C1383.4 144.417 1383.42 144.905 1383.44 145.393C1373.29 148.955 1366 158.61 1366 169.964C1366 184.338 1377.69 196 1392.1 196H1458.8C1471.61 196 1482 185.64 1482 172.857C1482 161.665 1474.02 152.318 1463.44 150.184Z" fill="#AEAEAE"/>
<path d="M1894.44 299.184C1895.18 297.25 1895.6 295.134 1895.6 292.929C1895.6 283.346 1887.81 275.571 1878.2 275.571C1874.63 275.571 1871.29 276.656 1868.54 278.5C1863.52 269.822 1854.15 264 1843.4 264C1827.38 264 1814.4 276.946 1814.4 292.929C1814.4 293.417 1814.42 293.905 1814.44 294.393C1804.29 297.955 1797 307.61 1797 318.964C1797 333.338 1808.69 345 1823.1 345H1889.8C1902.61 345 1913 334.64 1913 321.857C1913 310.665 1905.02 301.318 1894.44 299.184Z" fill="#AEAEAE"/>
<path d="M920.639 649.375C923.048 649.375 925 647.431 925 645.031V636.344C925 633.944 923.048 632 920.639 632H772.361C769.952 632 768 633.944 768 636.344V645.031C768 647.431 769.952 649.375 772.361 649.375H776.717V753.625H772.361C769.952 753.625 768 755.569 768 757.969V766.656C768 769.056 769.952 771 772.361 771H837.778V749.281C837.778 746.892 839.74 744.938 842.139 744.938H850.861C853.26 744.938 855.222 746.892 855.222 749.281V771H920.639C923.048 771 925 769.056 925 766.656V757.969C925 755.569 923.048 753.625 920.639 753.625H916.278V649.375H920.639ZM837.778 661.538C837.778 659.8 839.522 658.062 841.267 658.062H851.733C853.478 658.062 855.222 659.8 855.222 661.538V671.962C855.222 673.7 853.478 675.438 851.733 675.438H841.267C839.522 675.438 837.778 673.7 837.778 671.962V661.538V661.538ZM837.778 687.6C837.778 685.863 839.522 684.125 841.267 684.125H851.733C853.478 684.125 855.222 685.863 855.222 687.6V698.025C855.222 699.762 853.478 701.5 851.733 701.5H841.267C839.522 701.5 837.778 699.762 837.778 698.025V687.6V687.6ZM802.889 661.538C802.889 659.8 804.633 658.062 806.378 658.062H816.844C818.589 658.062 820.333 659.8 820.333 661.538V671.962C820.333 673.7 818.589 675.438 816.844 675.438H806.378C804.633 675.438 802.889 673.7 802.889 671.962V661.538ZM816.844 701.5H806.378C804.633 701.5 802.889 699.762 802.889 698.025V687.6C802.889 685.863 804.633 684.125 806.378 684.125H816.844C818.589 684.125 820.333 685.863 820.333 687.6V698.025C820.333 699.762 818.589 701.5 816.844 701.5ZM820.333 736.25C820.333 721.856 832.048 710.188 846.5 710.188C860.952 710.188 872.667 721.856 872.667 736.25H820.333ZM890.111 698.025C890.111 699.762 888.367 701.5 886.622 701.5H876.156C874.411 701.5 872.667 699.762 872.667 698.025V687.6C872.667 685.863 874.411 684.125 876.156 684.125H886.622C888.367 684.125 890.111 685.863 890.111 687.6V698.025ZM890.111 671.962C890.111 673.7 888.367 675.438 886.622 675.438H876.156C874.411 675.438 872.667 673.7 872.667 671.962V661.538C872.667 659.8 874.411 658.062 876.156 658.062H886.622C888.367 658.062 890.111 659.8 890.111 661.538V671.962Z" fill="#AEAEAE"/>
<path d="M1498.36 697.905L1458.67 730.448V765.571C1458.67 766.48 1459.03 767.353 1459.68 767.996C1460.32 768.639 1461.2 769 1462.11 769L1486.23 768.938C1487.15 768.933 1488.02 768.57 1488.66 767.927C1489.3 767.285 1489.66 766.415 1489.66 765.509V744.997C1489.66 744.088 1490.02 743.216 1490.67 742.573C1491.32 741.93 1492.19 741.568 1493.11 741.568H1506.88C1507.8 741.568 1508.67 741.93 1509.32 742.573C1509.96 743.216 1510.33 744.088 1510.33 744.997V765.494C1510.33 765.945 1510.41 766.392 1510.59 766.809C1510.76 767.227 1511.01 767.606 1511.33 767.925C1511.65 768.245 1512.03 768.499 1512.45 768.672C1512.87 768.845 1513.32 768.934 1513.77 768.934L1537.88 769C1538.8 769 1539.67 768.639 1540.32 767.996C1540.97 767.353 1541.33 766.48 1541.33 765.571V730.424L1501.65 697.905C1501.18 697.531 1500.6 697.326 1500 697.326C1499.4 697.326 1498.82 697.531 1498.36 697.905V697.905ZM1561.05 720.024L1543.05 705.256V675.572C1543.05 674.89 1542.78 674.236 1542.29 673.753C1541.81 673.271 1541.15 673 1540.47 673H1528.41C1527.73 673 1527.07 673.271 1526.59 673.753C1526.1 674.236 1525.83 674.89 1525.83 675.572V691.133L1506.56 675.347C1504.71 673.831 1502.39 673.003 1499.99 673.003C1497.6 673.003 1495.28 673.831 1493.43 675.347L1438.94 720.024C1438.68 720.239 1438.46 720.503 1438.3 720.802C1438.14 721.101 1438.04 721.427 1438.01 721.764C1437.98 722.1 1438.01 722.439 1438.11 722.762C1438.21 723.085 1438.38 723.385 1438.59 723.646L1444.08 730.289C1444.3 730.55 1444.56 730.767 1444.86 730.926C1445.16 731.085 1445.49 731.183 1445.83 731.216C1446.17 731.248 1446.51 731.214 1446.83 731.115C1447.16 731.016 1447.46 730.854 1447.72 730.639L1498.36 689.118C1498.82 688.744 1499.4 688.54 1500 688.54C1500.6 688.54 1501.18 688.744 1501.65 689.118L1552.29 730.639C1552.55 730.854 1552.85 731.016 1553.17 731.115C1553.5 731.215 1553.84 731.249 1554.18 731.218C1554.51 731.186 1554.84 731.088 1555.14 730.93C1555.44 730.772 1555.71 730.556 1555.92 730.296L1561.41 723.652C1561.63 723.39 1561.79 723.089 1561.89 722.764C1561.99 722.44 1562.02 722.099 1561.99 721.762C1561.95 721.425 1561.85 721.098 1561.69 720.8C1561.53 720.501 1561.31 720.238 1561.05 720.024V720.024Z" fill="#AEAEAE"/>
<path d="M678.487 743.666C676.905 743.656 675.396 743.912 673.983 744.403L670.488 738.542H679.242C680.654 738.542 681.791 737.399 681.791 735.979V732.562C681.791 731.142 680.654 730 679.242 730H674.43C673.707 730 673.017 730.31 672.539 730.843L668.555 735.296L666.133 731.239C665.666 730.47 664.837 730 663.945 730H655.447C654.512 730 653.747 730.769 653.747 731.708V733.417C653.747 734.356 654.512 735.125 655.447 735.125H662.5L664.54 738.542H648.213C646.332 736.075 643.443 734.271 637.601 734.271H631.705C630.271 734.271 629.07 735.445 629.102 736.887C629.124 738.275 630.26 739.396 631.652 739.396H637.601C640.203 739.396 641.712 740.559 642.678 742.044L641.478 744.232C640.097 743.816 638.62 743.624 637.091 743.677C629.942 743.933 624.173 749.816 624.003 757.013C623.833 764.711 629.984 770.999 637.601 770.999C643.932 770.999 649.254 766.643 650.773 760.749H659.717C661.172 760.749 662.33 759.532 662.267 758.07C662.043 753.041 664.125 748.065 668.236 744.723L669.564 746.944C666.632 749.475 664.773 753.233 664.805 757.429C664.858 764.86 670.882 770.935 678.275 770.999C685.881 771.074 692.063 764.86 692 757.215C691.925 749.784 685.881 743.72 678.487 743.666V743.666ZM637.601 765.874C632.916 765.874 629.102 762.041 629.102 757.333C629.102 752.624 632.916 748.791 637.601 748.791C638.047 748.791 638.493 748.823 638.928 748.898L634.52 756.949C633.585 758.657 634.817 760.749 636.751 760.749H645.387C644.07 763.76 641.074 765.874 637.601 765.874ZM686.879 757.803C686.646 762.137 683.161 765.64 678.859 765.864C673.962 766.131 669.894 762.202 669.894 757.333C669.894 755.048 670.786 752.977 672.241 751.45L677.489 760.248C677.967 761.059 679.019 761.315 679.826 760.835L681.281 759.959C682.089 759.479 682.343 758.422 681.865 757.61L676.703 748.973C677.255 748.855 677.818 748.802 678.392 748.802C683.236 748.791 687.134 752.881 686.879 757.803Z" fill="white"/>
<path d="M577.794 759.367L546.794 724.374H558.679C562.176 724.374 565.268 722.441 566.743 719.324C568.217 716.215 567.732 712.649 565.47 710.023L535.153 674.876H546.363C549.894 674.876 553.076 672.807 554.458 669.613C555.824 666.469 555.179 662.811 552.812 660.301L510.024 614.871C507.685 612.376 503.319 612.376 500.976 614.871L458.184 660.301C455.817 662.811 455.176 666.469 456.538 669.613C457.92 672.807 461.106 674.876 464.637 674.876H475.847L445.526 710.031C443.272 712.653 442.787 716.215 444.257 719.328C445.732 722.441 448.82 724.374 452.321 724.374H464.206L433.206 759.367C430.878 761.993 430.35 765.589 431.825 768.749C433.28 771.862 436.481 773.872 439.977 773.872H493.083V783.327L481.33 802.044C479.265 806.158 482.269 811 486.882 811H524.118C528.731 811 531.735 806.158 529.67 802.044L517.917 783.327V773.872H571.023C574.519 773.872 577.72 771.862 579.175 768.749C580.65 765.589 580.122 761.993 577.794 759.367Z" fill="white"/>
<path d="M1654.03 764.843L1626.36 733.562H1636.97C1640.09 733.562 1642.85 731.833 1644.17 729.047C1645.48 726.268 1645.05 723.08 1643.03 720.733L1615.97 689.313H1625.98C1629.13 689.313 1631.97 687.464 1633.2 684.608C1634.42 681.798 1633.84 678.528 1631.73 676.284L1593.54 635.672C1591.45 633.443 1587.55 633.443 1585.46 635.672L1547.26 676.284C1545.15 678.528 1544.58 681.798 1545.8 684.608C1547.03 687.464 1549.87 689.313 1553.02 689.313H1563.03L1535.97 720.74C1533.95 723.084 1533.52 726.268 1534.83 729.05C1536.15 731.833 1538.91 733.562 1542.03 733.562H1552.64L1524.97 764.843C1522.89 767.191 1522.42 770.405 1523.74 773.23C1525.04 776.013 1527.89 777.81 1531.01 777.81H1578.42V786.262L1567.93 802.994C1566.08 806.672 1568.76 811 1572.88 811H1606.12C1610.24 811 1612.92 806.672 1611.07 802.994L1600.58 786.262V777.81H1647.99C1651.11 777.81 1653.96 776.013 1655.26 773.23C1656.58 770.405 1656.11 767.191 1654.03 764.843Z" fill="white"/>
<path d="M1824.03 764.843L1796.36 733.562H1806.97C1810.09 733.562 1812.85 731.833 1814.17 729.047C1815.48 726.268 1815.05 723.08 1813.03 720.733L1785.97 689.313H1795.98C1799.13 689.313 1801.97 687.464 1803.2 684.608C1804.42 681.798 1803.84 678.528 1801.73 676.284L1763.54 635.672C1761.45 633.443 1757.55 633.443 1755.46 635.672L1717.26 676.284C1715.15 678.528 1714.58 681.798 1715.8 684.608C1717.03 687.464 1719.87 689.313 1723.02 689.313H1733.03L1705.97 720.74C1703.95 723.084 1703.52 726.268 1704.83 729.05C1706.15 731.833 1708.91 733.562 1712.03 733.562H1722.64L1694.97 764.843C1692.89 767.191 1692.42 770.405 1693.74 773.23C1695.04 776.013 1697.89 777.81 1701.01 777.81H1748.42V786.262L1737.93 802.994C1736.08 806.672 1738.76 811 1742.88 811H1776.12C1780.24 811 1782.92 806.672 1781.07 802.994L1770.58 786.262V777.81H1817.99C1821.11 777.81 1823.96 776.013 1825.26 773.23C1826.58 770.405 1826.11 767.191 1824.03 764.843Z" fill="white"/>
<path d="M2159.4 720.7C2158.83 720.7 2158.27 720.87 2157.79 721.189C2157.31 721.507 2156.94 721.96 2156.72 722.49C2156.5 723.02 2156.44 723.603 2156.56 724.166C2156.67 724.728 2156.94 725.245 2157.35 725.651C2157.75 726.056 2158.27 726.332 2158.83 726.444C2159.4 726.556 2159.98 726.499 2160.51 726.279C2161.04 726.06 2161.49 725.688 2161.81 725.211C2162.13 724.734 2162.3 724.174 2162.3 723.6C2162.3 722.831 2161.99 722.093 2161.45 721.549C2160.91 721.006 2160.17 720.7 2159.4 720.7ZM2197.1 741H2188.4V712C2188.4 704.309 2185.34 696.932 2179.91 691.494C2174.47 686.055 2167.09 683 2159.4 683H2095.6C2092.52 683 2089.57 684.222 2087.4 686.398C2085.22 688.573 2084 691.523 2084 694.6V741C2084 744.077 2085.22 747.027 2087.4 749.202C2089.57 751.378 2092.52 752.6 2095.6 752.6H2101.4C2101.4 757.215 2103.23 761.641 2106.5 764.904C2109.76 768.167 2114.19 770 2118.8 770C2123.41 770 2127.84 768.167 2131.1 764.904C2134.37 761.641 2136.2 757.215 2136.2 752.6H2197.1C2197.87 752.6 2198.61 752.294 2199.15 751.751C2199.69 751.207 2200 750.469 2200 749.7V743.9C2200 743.131 2199.69 742.393 2199.15 741.849C2198.61 741.306 2197.87 741 2197.1 741ZM2118.8 761.3C2117.08 761.3 2115.4 760.79 2113.97 759.834C2112.54 758.878 2111.42 757.519 2110.76 755.929C2110.1 754.34 2109.93 752.59 2110.27 750.903C2110.6 749.215 2111.43 747.665 2112.65 746.448C2113.86 745.231 2115.42 744.403 2117.1 744.067C2118.79 743.731 2120.54 743.904 2122.13 744.562C2123.72 745.221 2125.08 746.336 2126.03 747.767C2126.99 749.197 2127.5 750.879 2127.5 752.6C2127.5 754.907 2126.58 757.118 2124.95 758.749C2123.32 760.38 2121.11 761.298 2118.8 761.3V761.3ZM2130.4 717.8C2130.4 719.338 2129.79 720.814 2128.7 721.901C2127.61 722.989 2126.14 723.6 2124.6 723.6H2101.4C2099.86 723.6 2098.39 722.989 2097.3 721.901C2096.21 720.814 2095.6 719.338 2095.6 717.8V706.2C2095.6 704.662 2096.21 703.186 2097.3 702.099C2098.39 701.011 2099.86 700.4 2101.4 700.4H2124.6C2126.14 700.4 2127.61 701.011 2128.7 702.099C2129.79 703.186 2130.4 704.662 2130.4 706.2V717.8ZM2165.2 741H2142V706.2C2142 704.662 2142.61 703.186 2143.7 702.099C2144.79 701.011 2146.26 700.4 2147.8 700.4H2159.4C2160.94 700.4 2162.41 701.011 2163.5 702.099C2164.59 703.186 2165.2 704.662 2165.2 706.2V741Z" fill="white"/>
<path d="M928.642 717.186C932.037 717.186 934.791 714.457 934.791 711.093C934.791 707.729 932.037 705 928.642 705C925.248 705 922.493 707.729 922.493 711.093C922.493 714.457 925.248 717.186 928.642 717.186ZM940.748 736.112L937.763 734.614L936.521 730.882C934.638 725.221 929.385 721.26 923.428 721.248C918.817 721.235 916.268 722.53 911.476 724.446C908.709 725.551 906.442 727.645 905.11 730.311L904.251 732.037C903.252 734.043 904.059 736.48 906.07 737.483C908.069 738.485 910.503 737.673 911.515 735.667L912.373 733.941C912.822 733.053 913.565 732.354 914.487 731.986L917.92 730.615L915.973 738.32C915.307 740.961 916.024 743.766 917.882 745.784L925.555 754.086C926.477 755.088 927.131 756.294 927.464 757.602L929.808 766.906C930.359 769.077 932.588 770.409 934.778 769.864C936.969 769.318 938.314 767.109 937.763 764.938L934.919 753.641C934.586 752.334 933.933 751.115 933.011 750.125L927.182 743.817L929.385 735.096L930.09 737.191C930.769 739.234 932.229 740.922 934.151 741.887L937.136 743.385C939.134 744.388 941.568 743.575 942.58 741.57C943.566 739.577 942.759 737.114 940.748 736.112V736.112ZM911.425 753.971C911.015 755 910.4 755.926 909.606 756.7L903.201 763.06C901.6 764.647 901.6 767.223 903.201 768.81C904.802 770.397 907.39 770.397 908.991 768.81L916.601 761.27C917.382 760.496 917.997 759.569 918.42 758.541L920.149 754.251C913.065 746.596 915.191 748.945 914.077 747.434L911.425 753.971V753.971Z" fill="#2F6A36"/>
<path d="M1099.34 718.623C1102.57 718.623 1105.19 716.02 1105.19 712.812C1105.19 709.603 1102.57 707 1099.34 707C1096.11 707 1093.49 709.603 1093.49 712.812C1093.49 716.02 1096.11 718.623 1099.34 718.623ZM1110.86 736.676L1108.02 735.247L1106.84 731.687C1105.05 726.287 1100.05 722.51 1094.38 722.498C1090 722.486 1087.57 723.721 1083.01 725.549C1080.38 726.602 1078.23 728.6 1076.96 731.143L1076.14 732.789C1075.19 734.702 1075.96 737.027 1077.87 737.983C1079.77 738.94 1082.09 738.165 1083.05 736.252L1083.87 734.605C1084.29 733.758 1085 733.092 1085.88 732.741L1089.14 731.433L1087.29 738.782C1086.66 741.301 1087.34 743.977 1089.11 745.902L1096.41 753.82C1097.28 754.777 1097.9 755.927 1098.22 757.174L1100.45 766.049C1100.98 768.119 1103.1 769.39 1105.18 768.87C1107.26 768.349 1108.54 766.242 1108.02 764.172L1105.31 753.396C1105 752.149 1104.38 750.987 1103.5 750.043L1097.95 744.025L1100.05 735.707L1100.72 737.705C1101.37 739.654 1102.75 741.265 1104.58 742.185L1107.42 743.613C1109.32 744.57 1111.64 743.795 1112.6 741.882C1113.54 739.981 1112.77 737.632 1110.86 736.676V736.676ZM1082.97 753.711C1082.58 754.692 1081.99 755.576 1081.24 756.314L1075.14 762.38C1073.62 763.894 1073.62 766.351 1075.14 767.865C1076.67 769.378 1079.13 769.378 1080.65 767.865L1087.89 760.673C1088.63 759.934 1089.22 759.051 1089.62 758.07L1091.26 753.977C1084.53 746.677 1086.55 748.917 1085.49 747.476L1082.97 753.711V753.711Z" fill="#2F6A36"/>
<path d="M1347.39 722.686C1350.37 722.686 1352.79 720.293 1352.79 717.343C1352.79 714.393 1350.37 712 1347.39 712C1344.41 712 1341.99 714.393 1341.99 717.343C1341.99 720.293 1344.41 722.686 1347.39 722.686ZM1358.02 739.283L1355.4 737.969L1354.31 734.696C1352.66 729.732 1348.05 726.259 1342.82 726.248C1338.77 726.237 1336.53 727.372 1332.32 729.053C1329.89 730.021 1327.9 731.858 1326.73 734.196L1325.98 735.709C1325.1 737.468 1325.81 739.605 1327.57 740.485C1329.33 741.364 1331.47 740.652 1332.35 738.893L1333.11 737.379C1333.5 736.6 1334.15 735.988 1334.96 735.665L1337.98 734.463L1336.27 741.219C1335.68 743.535 1336.31 745.995 1337.94 747.764L1344.68 755.044C1345.49 755.924 1346.07 756.981 1346.36 758.128L1348.42 766.287C1348.9 768.19 1350.86 769.359 1352.78 768.88C1354.7 768.402 1355.89 766.465 1355.4 764.561L1352.9 754.655C1352.61 753.508 1352.04 752.44 1351.23 751.571L1346.11 746.039L1348.05 738.392L1348.66 740.229C1349.26 742.021 1350.54 743.501 1352.23 744.347L1354.85 745.661C1356.61 746.54 1358.74 745.828 1359.63 744.069C1360.5 742.321 1359.79 740.162 1358.02 739.283V739.283ZM1332.28 754.944C1331.92 755.846 1331.38 756.658 1330.68 757.337L1325.05 762.914C1323.65 764.305 1323.65 766.565 1325.05 767.956C1326.46 769.348 1328.73 769.348 1330.14 767.956L1336.82 761.345C1337.51 760.666 1338.05 759.853 1338.42 758.951L1339.94 755.189C1333.72 748.477 1335.58 750.536 1334.6 749.212L1332.28 754.944V754.944Z" fill="#2F6A36"/>
<path d="M975.358 717.373C971.963 717.373 969.209 714.602 969.209 711.187C969.209 707.771 971.963 705 975.358 705C978.752 705 981.507 707.771 981.507 711.187C981.507 714.602 978.752 717.373 975.358 717.373ZM963.252 736.59L966.237 735.069L967.479 731.28C969.362 725.532 974.615 721.51 980.572 721.498C985.183 721.485 987.732 722.799 992.524 724.746C995.291 725.867 997.558 727.994 998.89 730.7L999.749 732.453C1000.75 734.489 999.941 736.964 997.93 737.982C995.931 739 993.497 738.176 992.485 736.139L991.627 734.386C991.178 733.484 990.435 732.775 989.513 732.401L986.08 731.009L988.027 738.833C988.693 741.514 987.976 744.362 986.118 746.412L978.445 754.841C977.523 755.859 976.869 757.083 976.536 758.411L974.192 767.858C973.641 770.062 971.412 771.416 969.222 770.861C967.031 770.307 965.686 768.065 966.237 765.861L969.081 754.39C969.414 753.062 970.067 751.825 970.989 750.819L976.818 744.414L974.615 735.559L973.91 737.686C973.231 739.761 971.771 741.475 969.849 742.455L966.864 743.976C964.866 744.994 962.432 744.169 961.42 742.132C960.434 740.109 961.241 737.609 963.252 736.59V736.59ZM992.575 754.725C992.985 755.769 993.6 756.71 994.394 757.496L1000.8 763.953C1002.4 765.564 1002.4 768.181 1000.8 769.792C999.198 771.403 996.61 771.403 995.009 769.792L987.399 762.136C986.618 761.35 986.003 760.409 985.58 759.365L983.851 755.008C990.935 747.236 988.809 749.621 989.923 748.087L992.575 754.725V754.725Z" fill="#2F6A36"/>
<path d="M315.607 723.873C312.626 723.873 310.208 721.438 310.208 718.437C310.208 715.435 312.626 713 315.607 713C318.588 713 321.006 715.435 321.006 718.437C321.006 721.438 318.588 723.873 315.607 723.873ZM304.977 740.761L307.598 739.425L308.689 736.095C310.343 731.043 314.954 727.509 320.185 727.498C324.234 727.487 326.472 728.642 330.679 730.352C333.109 731.338 335.1 733.206 336.27 735.585L337.023 737.125C337.9 738.915 337.192 741.09 335.426 741.984C333.671 742.879 331.534 742.154 330.645 740.365L329.892 738.824C329.498 738.031 328.846 737.409 328.036 737.08L325.021 735.857L326.731 742.732C327.316 745.088 326.686 747.591 325.055 749.392L318.318 756.799C317.508 757.694 316.934 758.77 316.642 759.937L314.583 768.239C314.1 770.176 312.142 771.365 310.219 770.878C308.295 770.391 307.114 768.42 307.598 766.484L310.095 756.403C310.388 755.236 310.961 754.149 311.771 753.266L316.889 747.636L314.954 739.855L314.336 741.724C313.74 743.547 312.457 745.054 310.77 745.915L308.149 747.251C306.395 748.146 304.257 747.421 303.369 745.632C302.503 743.853 303.211 741.656 304.977 740.761V740.761ZM330.724 756.698C331.084 757.615 331.624 758.442 332.321 759.133L337.945 764.807C339.352 766.223 339.352 768.522 337.945 769.938C336.539 771.354 334.267 771.354 332.861 769.938L326.18 763.21C325.494 762.519 324.954 761.692 324.583 760.775L323.064 756.947C329.284 750.117 327.417 752.212 328.396 750.864L330.724 756.698V756.698Z" fill="#2F6A36"/>
<path d="M1304.07 688.786L1290.48 667.135C1289.26 665.191 1287.11 664 1284.8 664H1200.19C1197.89 664 1195.73 665.191 1194.51 667.135L1180.92 688.786C1173.9 699.966 1180.12 715.515 1193.24 717.291C1194.18 717.416 1195.14 717.479 1196.1 717.479C1202.3 717.479 1207.79 714.762 1211.56 710.562C1215.33 714.762 1220.84 717.479 1227.02 717.479C1233.22 717.479 1238.71 714.762 1242.47 710.562C1246.24 714.762 1251.75 717.479 1257.93 717.479C1264.13 717.479 1269.62 714.762 1273.39 710.562C1277.18 714.762 1282.67 717.479 1288.85 717.479C1289.83 717.479 1290.77 717.416 1291.71 717.291C1304.87 715.536 1311.11 699.987 1304.07 688.786V688.786ZM1288.89 724.188C1286.79 724.188 1284.72 723.874 1282.71 723.393V744.25H1202.28V723.393C1200.27 723.853 1198.2 724.188 1196.1 724.188C1194.85 724.188 1193.57 724.104 1192.33 723.937C1191.16 723.77 1190.01 723.498 1188.9 723.184V764.312C1188.9 768.012 1191.9 771 1195.6 771H1289.43C1293.14 771 1296.13 768.012 1296.13 764.312V723.184C1295 723.519 1293.87 723.79 1292.7 723.937C1291.42 724.104 1290.16 724.188 1288.89 724.188Z" fill="#AEAEAE"/>
<path d="M1162 698H1126C1124.9 698 1124 698.896 1124 700V724C1124 725.104 1124.9 726 1126 726H1162C1163.1 726 1164 725.104 1164 724V700C1164 698.896 1163.1 698 1162 698ZM1135 716.493V717.5C1135 717.776 1134.78 718 1134.5 718H1133.5C1133.22 718 1133 717.776 1133 717.5V716.482C1132.29 716.446 1131.61 716.199 1131.04 715.772C1130.8 715.589 1130.78 715.224 1131 715.014L1131.74 714.313C1131.91 714.148 1132.17 714.141 1132.37 714.267C1132.61 714.419 1132.89 714.5 1133.17 714.5H1134.93C1135.34 714.5 1135.67 714.13 1135.67 713.676C1135.67 713.304 1135.44 712.976 1135.12 712.88L1132.31 712.036C1131.14 711.687 1130.33 710.573 1130.33 709.324C1130.33 707.792 1131.52 706.547 1133 706.507V705.5C1133 705.224 1133.22 705 1133.5 705H1134.5C1134.78 705 1135 705.224 1135 705.5V706.518C1135.71 706.554 1136.39 706.8 1136.96 707.227C1137.2 707.411 1137.22 707.776 1137 707.986L1136.26 708.687C1136.09 708.852 1135.83 708.859 1135.63 708.733C1135.39 708.581 1135.11 708.5 1134.83 708.5H1133.07C1132.66 708.5 1132.33 708.87 1132.33 709.324C1132.33 709.696 1132.56 710.024 1132.88 710.12L1135.69 710.964C1136.85 711.312 1137.67 712.427 1137.67 713.676C1137.67 715.209 1136.48 716.453 1135 716.493V716.493ZM1150 715.5C1150 715.776 1149.78 716 1149.5 716H1142.5C1142.22 716 1142 715.776 1142 715.5V714.5C1142 714.224 1142.22 714 1142.5 714H1149.5C1149.78 714 1150 714.224 1150 714.5V715.5ZM1160 715.5C1160 715.776 1159.78 716 1159.5 716H1154.5C1154.22 716 1154 715.776 1154 715.5V714.5C1154 714.224 1154.22 714 1154.5 714H1159.5C1159.78 714 1160 714.224 1160 714.5V715.5ZM1160 709.5C1160 709.776 1159.78 710 1159.5 710H1142.5C1142.22 710 1142 709.776 1142 709.5V708.5C1142 708.224 1142.22 708 1142.5 708H1159.5C1159.78 708 1160 708.224 1160 708.5V709.5Z" fill="#337628"/>
<path d="M1392.09 757.244L1394.96 744.65C1395.17 743.741 1394.48 742.875 1393.54 742.875H1369.67L1369.12 740.162C1368.98 739.486 1368.38 739 1367.69 739H1361.46C1360.65 739 1360 739.651 1360 740.453V741.422C1360 742.224 1360.65 742.875 1361.46 742.875H1365.7L1369.97 763.669C1368.95 764.254 1368.26 765.351 1368.26 766.609C1368.26 768.482 1369.79 770 1371.67 770C1373.55 770 1375.07 768.482 1375.07 766.609C1375.07 765.66 1374.68 764.803 1374.05 764.188H1386.79C1386.16 764.803 1385.76 765.66 1385.76 766.609C1385.76 768.482 1387.29 770 1389.17 770C1391.05 770 1392.57 768.482 1392.57 766.609C1392.57 765.267 1391.79 764.107 1390.65 763.558L1390.99 762.088C1391.19 761.178 1390.5 760.312 1389.56 760.312H1373.25L1372.86 758.375H1390.67C1391.35 758.375 1391.94 757.906 1392.09 757.244Z" fill="#AEAEAE"/>
<path d="M1662.55 188.809L1655.84 202.254L1640.82 204.417C1638.12 204.803 1637.04 208.083 1639 209.962L1649.86 220.421L1647.29 235.197C1646.83 237.868 1649.68 239.868 1652.06 238.619L1665.5 231.643L1678.94 238.619C1681.32 239.858 1684.17 237.868 1683.71 235.197L1681.14 220.421L1692 209.962C1693.96 208.083 1692.88 204.803 1690.18 204.417L1675.16 202.254L1668.45 188.809C1667.25 186.412 1663.76 186.382 1662.55 188.809Z" fill="#FAB005"/>
<path d="M1374.55 583.809L1367.84 597.254L1352.82 599.417C1350.12 599.803 1349.04 603.083 1351 604.962L1361.86 615.421L1359.29 630.197C1358.83 632.868 1361.68 634.868 1364.06 633.619L1377.5 626.643L1390.94 633.619C1393.32 634.858 1396.17 632.868 1395.71 630.197L1393.14 615.421L1404 604.962C1405.96 603.083 1404.88 599.803 1402.18 599.417L1387.16 597.254L1380.45 583.809C1379.25 581.412 1375.76 581.382 1374.55 583.809Z" fill="#FAB005"/>
<path d="M295 670.429V675C295 675.606 294.759 676.188 294.331 676.616C293.903 677.045 293.322 677.286 292.717 677.286H285.867V680.714C285.867 682.608 284.333 684.143 282.442 684.143H170.558C168.667 684.143 167.133 682.608 167.133 680.714V677.286H160.283C159.678 677.286 159.097 677.045 158.669 676.616C158.241 676.188 158 675.606 158 675V670.429C158 669.976 158.134 669.534 158.385 669.158C158.636 668.783 158.993 668.49 159.41 668.317L225.627 643.174C226.186 642.942 226.814 642.942 227.373 643.174L293.59 668.317C294.007 668.49 294.364 668.783 294.615 669.158C294.866 669.534 295 669.976 295 670.429V670.429ZM288.15 757.286H164.85C161.067 757.286 158 760.356 158 764.143V768.714C158 769.32 158.241 769.902 158.669 770.331C159.097 770.759 159.678 771 160.283 771H292.717C293.322 771 293.903 770.759 294.331 770.331C294.759 769.902 295 769.32 295 768.714V764.143C295 760.356 291.933 757.286 288.15 757.286ZM180.833 688.714V743.571H170.558C168.667 743.571 167.133 745.107 167.133 747V752.714H285.867V747C285.867 745.107 284.333 743.571 282.442 743.571H272.167V688.714H253.9V743.571H235.633V688.714H217.367V743.571H199.1V688.714H180.833Z" fill="#AEAEAE"/>
<path d="M1947.11 692.25H1913.75V650.906C1913.75 647.643 1911.12 645 1907.86 645H1872.54C1869.28 645 1866.65 647.643 1866.65 650.906V668.625H1850.95V648.938C1850.95 646.762 1849.19 645 1847.02 645H1843.1C1840.93 645 1839.17 646.762 1839.17 648.938V668.625H1823.47V648.938C1823.47 646.762 1821.72 645 1819.55 645H1815.62C1813.46 645 1811.7 646.762 1811.7 648.938V668.625H1801.89C1798.63 668.625 1796 671.268 1796 674.531V763.125C1796 767.473 1799.52 771 1803.85 771H1945.15C1949.48 771 1953 767.473 1953 763.125V698.156C1953 694.893 1950.36 692.25 1947.11 692.25ZM1827.4 744.422C1827.4 746.053 1826.08 747.375 1824.46 747.375H1814.64C1813.02 747.375 1811.7 746.053 1811.7 744.422V734.578C1811.7 732.947 1813.02 731.625 1814.64 731.625H1824.46C1826.08 731.625 1827.4 732.947 1827.4 734.578V744.422ZM1827.4 720.797C1827.4 722.428 1826.08 723.75 1824.46 723.75H1814.64C1813.02 723.75 1811.7 722.428 1811.7 720.797V710.953C1811.7 709.322 1813.02 708 1814.64 708H1824.46C1826.08 708 1827.4 709.322 1827.4 710.953V720.797ZM1827.4 697.172C1827.4 698.803 1826.08 700.125 1824.46 700.125H1814.64C1813.02 700.125 1811.7 698.803 1811.7 697.172V687.328C1811.7 685.697 1813.02 684.375 1814.64 684.375H1824.46C1826.08 684.375 1827.4 685.697 1827.4 687.328V697.172ZM1858.8 744.422C1858.8 746.053 1857.48 747.375 1855.86 747.375H1846.04C1844.42 747.375 1843.1 746.053 1843.1 744.422V734.578C1843.1 732.947 1844.42 731.625 1846.04 731.625H1855.86C1857.48 731.625 1858.8 732.947 1858.8 734.578V744.422ZM1858.8 720.797C1858.8 722.428 1857.48 723.75 1855.86 723.75H1846.04C1844.42 723.75 1843.1 722.428 1843.1 720.797V710.953C1843.1 709.322 1844.42 708 1846.04 708H1855.86C1857.48 708 1858.8 709.322 1858.8 710.953V720.797ZM1858.8 697.172C1858.8 698.803 1857.48 700.125 1855.86 700.125H1846.04C1844.42 700.125 1843.1 698.803 1843.1 697.172V687.328C1843.1 685.697 1844.42 684.375 1846.04 684.375H1855.86C1857.48 684.375 1858.8 685.697 1858.8 687.328V697.172ZM1898.05 720.797C1898.05 722.428 1896.73 723.75 1895.11 723.75H1885.29C1883.67 723.75 1882.35 722.428 1882.35 720.797V710.953C1882.35 709.322 1883.67 708 1885.29 708H1895.11C1896.73 708 1898.05 709.322 1898.05 710.953V720.797ZM1898.05 697.172C1898.05 698.803 1896.73 700.125 1895.11 700.125H1885.29C1883.67 700.125 1882.35 698.803 1882.35 697.172V687.328C1882.35 685.697 1883.67 684.375 1885.29 684.375H1895.11C1896.73 684.375 1898.05 685.697 1898.05 687.328V697.172ZM1898.05 673.547C1898.05 675.178 1896.73 676.5 1895.11 676.5H1885.29C1883.67 676.5 1882.35 675.178 1882.35 673.547V663.703C1882.35 662.072 1883.67 660.75 1885.29 660.75H1895.11C1896.73 660.75 1898.05 662.072 1898.05 663.703V673.547ZM1937.3 744.422C1937.3 746.053 1935.98 747.375 1934.36 747.375H1924.54C1922.92 747.375 1921.6 746.053 1921.6 744.422V734.578C1921.6 732.947 1922.92 731.625 1924.54 731.625H1934.36C1935.98 731.625 1937.3 732.947 1937.3 734.578V744.422ZM1937.3 720.797C1937.3 722.428 1935.98 723.75 1934.36 723.75H1924.54C1922.92 723.75 1921.6 722.428 1921.6 720.797V710.953C1921.6 709.322 1922.92 708 1924.54 708H1934.36C1935.98 708 1937.3 709.322 1937.3 710.953V720.797Z" fill="#AEAEAE"/>
</g>
<defs>
<clipPath id="clip0">
<rect width="2307" height="771" fill="white"/>
</clipPath>
</defs>
</svg>
