<svg width="272" height="68" viewBox="0 0 272 68" fill="none" xmlns="http://www.w3.org/2000/svg">
<path d="M75.8 60.24C79.232 60.24 81.92 58.632 81.92 55.176C81.92 51.792 78.944 50.64 76.328 49.608C74.24 48.816 72.368 48.048 72.368 46.272C72.368 44.472 73.928 43.656 75.752 43.656C77.984 43.656 79.52 44.52 80.336 45.744L81.8 44.256C80.6 42.816 78.488 41.76 75.704 41.76C72.68 41.76 70.16 43.392 70.16 46.44C70.16 49.344 72.776 50.328 75.272 51.264C77.552 52.128 79.736 52.968 79.712 55.296C79.688 57.312 78.008 58.152 75.872 58.152C73.4 58.152 71.312 56.952 70.592 55.152L69.008 56.76C70.256 58.8 72.848 60.24 75.8 60.24ZM95.2137 54C95.2137 50.352 93.1978 47.76 89.7658 47.76C86.2378 47.76 84.0538 50.448 84.0538 54.024C84.0538 57.6 86.2138 60.24 89.7658 60.24C92.0218 60.24 93.6538 59.208 94.6378 57.432L93.1498 56.4C92.1898 57.888 91.2778 58.392 89.8378 58.392C87.6058 58.392 86.3338 56.904 86.1178 54.696H95.1898C95.2137 54.456 95.2137 54.216 95.2137 54ZM89.8138 49.584C91.8538 49.584 93.0778 50.928 93.2938 53.04H86.1658C86.4778 50.976 87.7258 49.584 89.8138 49.584ZM103.564 47.76C102.172 47.76 100.876 48.576 100.012 49.824L99.9159 48H97.9719V60H100.084V53.28C100.084 51.144 101.716 49.632 103.468 49.632C104.332 49.632 104.884 49.872 105.148 50.016L106.18 48.48C105.508 47.976 104.836 47.76 103.564 47.76ZM115.334 48L111.782 57.504L108.206 48H105.95L110.75 60H112.79L117.59 48H115.334ZM121.069 45.768C121.813 45.768 122.461 45.168 122.461 44.4C122.461 43.608 121.813 42.984 121.069 42.984C120.301 42.984 119.653 43.608 119.653 44.4C119.653 45.168 120.301 45.768 121.069 45.768ZM119.989 60H122.101V48H119.989V60ZM130.968 60.24C131.952 60.24 133.152 59.976 134.064 59.256V57.144C133.392 57.912 132.336 58.44 131.184 58.44C128.808 58.44 127.392 56.52 127.392 54C127.392 51.48 128.808 49.56 131.184 49.56C132.312 49.56 133.368 50.088 134.064 50.856V48.72C133.128 48 131.952 47.76 130.968 47.76C127.44 47.76 125.304 50.424 125.304 54C125.304 57.576 127.44 60.24 130.968 60.24ZM146.987 54C146.987 50.352 144.971 47.76 141.539 47.76C138.011 47.76 135.827 50.448 135.827 54.024C135.827 57.6 137.987 60.24 141.539 60.24C143.795 60.24 145.427 59.208 146.411 57.432L144.923 56.4C143.963 57.888 143.051 58.392 141.611 58.392C139.379 58.392 138.107 56.904 137.891 54.696H146.963C146.987 54.456 146.987 54.216 146.987 54ZM141.587 49.584C143.627 49.584 144.851 50.928 145.067 53.04H137.939C138.251 50.976 139.499 49.584 141.587 49.584ZM171.82 42L165.052 52.032L158.308 42H155.98V60H158.164V45.192L165.028 55.584L171.964 45.168V60H174.124V42H171.82ZM182.146 47.76C179.866 47.76 178.282 48.6 177.37 49.92L178.834 51.216C179.554 50.136 180.634 49.56 182.05 49.56C183.682 49.56 185.026 50.352 185.026 52.176V53.592L182.842 53.232C178.642 52.536 177.01 54.432 177.01 56.568C177.01 58.704 178.546 60.24 180.682 60.24C182.242 60.24 183.826 59.448 185.122 58.296L185.242 60H187.114V52.32C187.114 49.224 184.906 47.76 182.146 47.76ZM179.17 56.472C179.17 55.296 180.034 54.264 183.058 54.816L185.026 55.152V56.52C183.898 57.552 182.554 58.344 181.162 58.344C179.962 58.344 179.17 57.6 179.17 56.472ZM196.548 47.76C194.94 47.76 193.572 48.48 192.66 49.584L192.564 48H190.62V60H192.732V52.752C192.732 51.024 194.172 49.632 195.972 49.632C197.748 49.632 199.092 50.928 199.092 52.656V60H201.228V52.416C201.228 49.704 199.236 47.76 196.548 47.76ZM209.146 47.76C206.866 47.76 205.282 48.6 204.37 49.92L205.834 51.216C206.554 50.136 207.634 49.56 209.05 49.56C210.682 49.56 212.026 50.352 212.026 52.176V53.592L209.842 53.232C205.642 52.536 204.01 54.432 204.01 56.568C204.01 58.704 205.546 60.24 207.682 60.24C209.242 60.24 210.826 59.448 212.122 58.296L212.242 60H214.114V52.32C214.114 49.224 211.906 47.76 209.146 47.76ZM206.17 56.472C206.17 55.296 207.034 54.264 210.058 54.816L212.026 55.152V56.52C210.898 57.552 209.554 58.344 208.162 58.344C206.962 58.344 206.17 57.6 206.17 56.472ZM226.404 48L226.308 49.752C225.348 48.528 223.956 47.76 222.3 47.76C218.916 47.76 216.78 50.496 216.78 54C216.78 57.48 218.916 60.24 222.3 60.24C223.908 60.24 225.276 59.52 226.236 58.344V59.856C226.236 62.472 224.844 64.128 222.804 64.128C221.148 64.128 219.924 63.48 218.964 62.568V64.872C219.972 65.568 221.148 66 222.66 66C226.14 66 228.324 63.36 228.324 59.856V48H226.404ZM222.636 58.344C220.284 58.344 218.868 56.4 218.868 54C218.868 51.576 220.284 49.632 222.636 49.632C224.316 49.632 225.756 50.928 226.236 52.728V55.272C225.756 57.048 224.316 58.344 222.636 58.344ZM242.237 54C242.237 50.352 240.221 47.76 236.789 47.76C233.261 47.76 231.077 50.448 231.077 54.024C231.077 57.6 233.237 60.24 236.789 60.24C239.045 60.24 240.677 59.208 241.661 57.432L240.173 56.4C239.213 57.888 238.301 58.392 236.861 58.392C234.629 58.392 233.357 56.904 233.141 54.696H242.213C242.237 54.456 242.237 54.216 242.237 54ZM236.837 49.584C238.877 49.584 240.101 50.928 240.317 53.04H233.189C233.501 50.976 234.749 49.584 236.837 49.584ZM250.587 47.76C249.195 47.76 247.899 48.576 247.035 49.824L246.939 48H244.995V60H247.107V53.28C247.107 51.144 248.739 49.632 250.491 49.632C251.355 49.632 251.907 49.872 252.171 50.016L253.203 48.48C252.531 47.976 251.859 47.76 250.587 47.76Z" fill="#979797"/>
<path d="M91.712 33H95.474L84.036 4.5H80.16L68.722 33H72.484L74.802 27.034H89.394L91.712 33ZM75.904 24.108L82.098 8.072L88.292 24.108H75.904ZM110.157 33.38C113.045 33.38 115.743 32.392 117.909 30.72V26.54C115.781 28.896 113.121 30.074 110.157 30.074C103.811 30.074 99.5165 25.096 99.5165 18.75C99.5165 12.404 103.811 7.426 110.157 7.426C113.083 7.426 115.743 8.604 117.909 10.96V6.78C115.743 5.108 113.045 4.12 110.157 4.12C102.063 4.12 96.2485 10.656 96.2485 18.75C96.2485 26.844 102.063 33.38 110.157 33.38ZM147.623 4.5L136.907 20.384L126.229 4.5H122.543V33H126.001V9.554L136.869 26.008L147.851 9.516V33H151.271V4.5H147.623ZM172.751 7.578V4.5H156.981V33H172.751V29.922H160.439V20.308H171.155V17.192H160.439V7.578H172.751Z" fill="#003399"/>
<path d="M201.47 18.332C203.674 17.154 205.118 14.988 205.118 12.1C205.118 7.578 201.584 4.5 197.176 4.5H187.448V33H199.418C203.788 33 207.284 29.96 207.284 25.438C207.284 21.676 204.814 19.168 201.47 18.332ZM201.66 12.404C201.66 15.102 199.494 17.306 196.796 17.306H190.906V7.578H196.796C199.494 7.578 201.66 9.744 201.66 12.404ZM198.962 29.922H190.906V20.194H198.962C201.66 20.194 203.826 22.398 203.826 25.02C203.826 27.718 201.66 29.922 198.962 29.922ZM218.932 13.62C215.322 13.62 212.814 14.95 211.37 17.04L213.688 19.092C214.828 17.382 216.538 16.47 218.78 16.47C221.364 16.47 223.492 17.724 223.492 20.612V22.854L220.034 22.284C213.384 21.182 210.8 24.184 210.8 27.566C210.8 30.948 213.232 33.38 216.614 33.38C219.084 33.38 221.592 32.126 223.644 30.302L223.834 33H226.798V20.84C226.798 15.938 223.302 13.62 218.932 13.62ZM214.22 27.414C214.22 25.552 215.588 23.918 220.376 24.792L223.492 25.324V27.49C221.706 29.124 219.578 30.378 217.374 30.378C215.474 30.378 214.22 29.2 214.22 27.414ZM241.736 13.62C239.19 13.62 237.024 14.76 235.58 16.508L235.428 14H232.35V33H235.694V21.524C235.694 18.788 237.974 16.584 240.824 16.584C243.636 16.584 245.764 18.636 245.764 21.372V33H249.146V20.992C249.146 16.698 245.992 13.62 241.736 13.62ZM270.65 30.796L261.264 22.36L270.346 14H266.09L258.034 21.41V4.5H254.69V33H258.034V23.576L270.65 34.9V30.796Z" fill="#0D97FF"/>
<path fill-rule="evenodd" clip-rule="evenodd" d="M16.0222 44.4512C11.3682 44.4512 6.37115 43.1502 6.37115 43.1502C5.13815 42.8302 3.45615 42.2452 1.93615 41.6272C1.68215 41.5242 0.94315 41.1652 0.00415039 40.6962L1.93515 41.6802L41.0942 61.6412C42.8782 62.5512 44.3382 61.6562 44.3382 59.6532V42.4422C44.3382 40.4402 43.0152 37.8352 41.3982 36.6532C41.3982 36.6532 40.7791 36.2022 39.7001 35.4932C37.9741 36.6272 35.0651 38.4252 31.5851 40.1162C26.9181 42.3822 21.2312 44.4512 16.0222 44.4512" fill="#003399"/>
<path fill-rule="evenodd" clip-rule="evenodd" d="M41.094 7.35613L1.935 27.3171L0 28.3041C0.941 27.8341 1.682 27.4731 1.937 27.3701C3.456 26.7531 5.138 26.1681 6.371 25.8471C6.371 25.8471 11.368 24.5461 16.022 24.5461C21.209 24.5461 26.869 26.5971 31.524 28.8521C35.031 30.5511 37.964 32.3631 39.7 33.5051C40.779 32.7961 41.398 32.3441 41.398 32.3441C43.015 31.1631 44.338 28.5581 44.338 26.5551V9.34413C44.338 7.34113 42.878 6.44613 41.094 7.35613" fill="#0D97FF"/>
</svg>
