<?xml version="1.0" encoding="utf-8"?>
<!-- Generator: Adobe Illustrator 19.0.0, SVG Export Plug-In . SVG Version: 6.00 Build 0)  -->
<svg version="1.0" id="Layer_1" xmlns="http://www.w3.org/2000/svg" xmlns:xlink="http://www.w3.org/1999/xlink" x="0px" y="0px"
	 viewBox="0 0 792 612" enable-background="new 0 0 792 612" xml:space="preserve">
<g id="XMLID_1313_">
	<path id="XMLID_1317_" fill="#243E90" d="M290.7,306c0-2.9,0.8-6.1,0.8-6.1c0.2-0.8,0.6-1.8,1-2.8c0.1-0.2,0.3-0.6,0.6-1.2
		l-0.6,1.2l-12.6,24.7c-0.6,1.1,0,2,1.3,2h10.9c1.3,0,2.9-0.8,3.7-1.9c0,0,0.3-0.4,0.7-1.1c-0.7-1.1-1.9-2.9-2.9-5.1
		C292,312.9,290.7,309.3,290.7,306z"/>
	<path id="XMLID_1316_" opacity="0.88" fill="#FFFFFF" d="M312.8,321.8l-12.6-24.7l-0.6-1.2c0.3,0.6,0.5,1.1,0.6,1.2
		c0.4,1,0.8,2,1,2.8c0,0,0.8,3.2,0.8,6.1c0,3.3-1.3,6.8-2.7,9.8c-1.1,2.2-2.2,4.1-2.9,5.2c0.4,0.7,0.7,1.1,0.7,1.1
		c0.7,1,2.4,1.9,3.7,1.9h10.9C312.8,323.9,313.4,322.9,312.8,321.8z"/>
	<path id="XMLID_1314_" fill="#4164AF" d="M302,306c0-2.9-0.8-6.1-0.8-6.1c-0.2-0.8-0.6-1.8-1-2.8c-0.1-0.2-0.3-0.6-0.6-1.2
		l-1.3-2.5c-0.1-0.2-0.2-0.4-0.3-0.6l-0.3-0.6c0-0.1-0.4-0.6-0.4-0.6c0,0,0,0-0.1-0.1c0,0,0,0,0,0c-0.1-0.1-0.2-0.2-0.4-0.3
		c0,0-0.1-0.1-0.2-0.1c0,0,0,0,0,0c0,0-0.2,0-0.2,0c0,0-0.2,0-0.2,0c0,0-0.1,0-0.1,0c-0.4,0.1-0.7,0.3-0.9,0.7c0,0.1-0.5,1-0.8,1.6
		l-1.3,2.5c-0.3,0.6-0.5,1.1-0.6,1.2c-0.4,1-0.8,2-1,2.8c0,0-0.8,3.2-0.8,6.1c0,3.3,1.3,6.9,2.7,9.8c1.1,2.2,2.2,4,2.9,5.1
		c0.7-1.1,1.9-2.9,2.9-5.2C300.7,312.8,302,309.3,302,306z"/>
</g>
<g id="XMLID_7_" opacity="0.88">
	<path id="XMLID_100_" fill="#FFFFFF" d="M327.1,299.9c2,0,3.7,0.5,5,1.6c1.3,1.1,2,2.7,2,4.8v10.8h-2.6l-0.2-2.4
		c-2,1.8-4.1,2.7-6.2,2.7c-1.5,0-2.7-0.5-3.7-1.5c-1-1-1.5-2.2-1.5-3.7c0-1.7,0.7-3,2-3.9c1.4-0.9,3.4-1.2,6.2-0.7l3.1,0.5v-2
		c0-1.2-0.4-2.1-1.2-2.8c-0.8-0.6-1.8-0.9-3-0.9c-2,0-3.5,0.8-4.5,2.3l-2.1-1.8C321.8,300.9,324.1,299.9,327.1,299.9z M323,312.1
		c0,0.8,0.3,1.4,0.8,1.9c0.5,0.5,1.2,0.7,2,0.7c1.8,0,3.6-0.9,5.4-2.6v-1.9l-2.8-0.5c-2-0.4-3.4-0.3-4.2,0.2
		C323.4,310.5,323,311.2,323,312.1z"/>
	<path id="XMLID_130_" fill="#FFFFFF" d="M353.2,315.1v3.6L342,308.7v8.4h-3v-25.3h3v15l7.2-6.6h3.8l-8.1,7.4L353.2,315.1z"/>
	<path id="XMLID_157_" fill="#FFFFFF" d="M370.7,308.7c0,0.4,0,0.8,0,1h-12.8c0.2,1.6,0.7,2.9,1.6,3.8c0.9,0.9,2.1,1.4,3.6,1.4
		c1,0,1.9-0.2,2.6-0.6c0.7-0.4,1.4-1.1,2.1-2.2l2.1,1.5c-1.5,2.6-3.7,3.9-6.8,3.9c-2.5,0-4.4-0.8-5.9-2.4s-2.2-3.7-2.2-6.3
		s0.7-4.7,2.2-6.3c1.5-1.7,3.4-2.5,5.8-2.5c2.4,0,4.2,0.8,5.6,2.4C370,303.9,370.7,306,370.7,308.7z M363.1,302.4
		c-1.4,0-2.6,0.4-3.5,1.3c-0.9,0.9-1.4,2.1-1.7,3.5h10c-0.2-1.5-0.7-2.7-1.5-3.6C365.6,302.9,364.5,302.4,363.1,302.4z"/>
	<path id="XMLID_165_" fill="#FFFFFF" d="M389.1,308.7c0,0.4,0,0.8,0,1h-12.8c0.2,1.6,0.7,2.9,1.6,3.8c0.9,0.9,2.1,1.4,3.6,1.4
		c1,0,1.9-0.2,2.6-0.6c0.7-0.4,1.4-1.1,2.1-2.2l2.1,1.5c-1.5,2.6-3.7,3.9-6.8,3.9c-2.5,0-4.4-0.8-5.9-2.4s-2.2-3.7-2.2-6.3
		s0.7-4.7,2.2-6.3c1.5-1.7,3.4-2.5,5.8-2.5c2.4,0,4.2,0.8,5.6,2.4C388.4,303.9,389.1,306,389.1,308.7z M381.5,302.4
		c-1.4,0-2.6,0.4-3.5,1.3c-0.9,0.9-1.4,2.1-1.7,3.5h10c-0.2-1.5-0.7-2.7-1.5-3.6C384,302.9,382.9,302.4,381.5,302.4z"/>
	<path id="XMLID_597_" fill="#FFFFFF" d="M398.2,317.4c-1.6,0-2.8-0.5-3.8-1.4c-0.9-0.9-1.4-2.2-1.4-3.7v-20.6h3l0,20.6
		c0,1.7,0.7,2.5,2.2,2.5c0.7,0,1.3-0.3,1.8-0.8l1.7,2C400.9,317,399.8,317.4,398.2,317.4z"/>
	<path id="XMLID_1292_" fill="#FFFFFF" d="M410.2,299.9c2,0,3.7,0.5,5,1.6c1.3,1.1,2,2.7,2,4.8v10.8h-2.6l-0.2-2.4
		c-2,1.8-4.1,2.7-6.2,2.7c-1.5,0-2.7-0.5-3.7-1.5c-1-1-1.5-2.2-1.5-3.7c0-1.7,0.7-3,2-3.9c1.4-0.9,3.4-1.2,6.2-0.7l3.1,0.5v-2
		c0-1.2-0.4-2.1-1.2-2.8c-0.8-0.6-1.8-0.9-3-0.9c-2,0-3.5,0.8-4.5,2.3l-2.1-1.8C404.9,300.9,407.1,299.9,410.2,299.9z M406,312.1
		c0,0.8,0.3,1.4,0.8,1.9c0.5,0.5,1.2,0.7,2,0.7c1.8,0,3.6-0.9,5.4-2.6v-1.9l-2.8-0.5c-2-0.4-3.4-0.3-4.2,0.2
		C406.4,310.5,406,311.2,406,312.1z"/>
	<path id="XMLID_1295_" fill="#4164AF" d="M436.1,317.4c-2.4,0-4.4-0.8-5.8-2.5c-1.4-1.6-2.2-3.7-2.2-6.3c0-2.6,0.7-4.7,2.2-6.3
		c1.4-1.6,3.4-2.5,5.8-2.5c1.7,0,3.2,0.5,4.4,1.3v3c-1.1-1.2-2.5-1.8-4-1.8c-1.6,0-2.9,0.6-3.9,1.8c-1,1.2-1.4,2.7-1.4,4.5
		c0,1.8,0.5,3.3,1.4,4.5c1,1.2,2.3,1.8,3.9,1.8c1.6,0,3-0.6,4-1.8v3C439.3,317,437.8,317.4,436.1,317.4z"/>
	<path id="XMLID_1297_" fill="#4164AF" d="M452.2,299.9c1.6,0,2.8,0.3,3.7,1l-1.5,2.2c-0.7-0.4-1.4-0.5-2.4-0.5
		c-1.3,0-2.4,0.5-3.3,1.5s-1.4,2.2-1.4,3.7v9.4h-3v-16.9h2.7l0.1,2.6C448.5,300.8,450.2,299.9,452.2,299.9z"/>
	<path id="XMLID_1299_" fill="#4164AF" d="M472.3,308.7c0,0.4,0,0.8,0,1h-12.8c0.2,1.6,0.7,2.9,1.6,3.8c0.9,0.9,2.1,1.4,3.6,1.4
		c1,0,1.9-0.2,2.6-0.6c0.7-0.4,1.4-1.1,2.1-2.2l2.1,1.5c-1.5,2.6-3.7,3.9-6.8,3.9c-2.5,0-4.4-0.8-5.9-2.4s-2.2-3.7-2.2-6.3
		s0.7-4.7,2.2-6.3c1.5-1.7,3.4-2.5,5.8-2.5c2.4,0,4.2,0.8,5.6,2.4C471.6,303.9,472.3,306,472.3,308.7z M464.7,302.4
		c-1.4,0-2.6,0.4-3.5,1.3c-0.9,0.9-1.4,2.1-1.7,3.5h10c-0.2-1.5-0.7-2.7-1.5-3.6C467.3,302.9,466.1,302.4,464.7,302.4z"/>
	<path id="XMLID_1302_" fill="#4164AF" d="M488.3,291.8h2.9v25.3h-2.7l-0.1-2.4c-1.4,1.8-3.3,2.8-5.6,2.8c-2.3,0-4.2-0.8-5.6-2.5
		c-1.4-1.7-2.1-3.8-2.1-6.3c0-2.5,0.7-4.6,2.1-6.3c1.4-1.7,3.3-2.5,5.6-2.5c2.3,0,4.1,0.9,5.5,2.6V291.8z M483.2,314.8
		c1.2,0,2.3-0.4,3.2-1.2c0.9-0.8,1.6-1.8,1.9-3.1v-3.6c-0.3-1.3-0.9-2.3-1.9-3.1c-0.9-0.8-2-1.2-3.2-1.2c-1.6,0-2.9,0.6-3.9,1.8
		c-1,1.2-1.4,2.6-1.4,4.4c0,1.8,0.5,3.2,1.4,4.4C480.3,314.2,481.6,314.8,483.2,314.8z"/>
	<path id="XMLID_1331_" fill="#4164AF" d="M499.7,296.5c-0.4,0.4-0.8,0.6-1.4,0.6c-0.5,0-1-0.2-1.4-0.6c-0.4-0.4-0.6-0.8-0.6-1.4
		c0-0.6,0.2-1,0.6-1.4c0.4-0.4,0.9-0.6,1.4-0.6c0.5,0,1,0.2,1.4,0.6c0.4,0.4,0.6,0.9,0.6,1.4S500.1,296.2,499.7,296.5z M496.8,317.1
		v-16.9h3v16.9H496.8z"/>
	<path id="XMLID_1334_" fill="#4164AF" d="M513,314.1l1.7,2c-0.8,0.9-2,1.3-3.5,1.3c-1.6,0-2.8-0.5-3.7-1.4s-1.4-2.2-1.4-3.7v-9.8
		h-2.2v-2.3h2.2v-5.7h3v5.7h4.6v2.3h-4.6v9.8c0,1.7,0.7,2.5,2.2,2.5C511.9,314.9,512.5,314.6,513,314.1z"/>
</g>
</svg>
