<svg xmlns:x="http://ns.adobe.com/Extensibility/1.0/" xmlns:i="http://ns.adobe.com/AdobeIllustrator/10.0/" xmlns:graph="http://ns.adobe.com/Graphs/1.0/" xmlns="http://www.w3.org/2000/svg" xmlns:xlink="http://www.w3.org/1999/xlink" version="1.1" x="0px" y="0px" viewBox="0 0 64 80" enable-background="new 0 0 64 64" xml:space="preserve"><metadata><sfw xmlns="http://ns.adobe.com/SaveForWeb/1.0/"><slices/><sliceSourceBounds y="-8160" x="-8165" width="16389" height="16384" bottomLeftOrigin="true"/></sfw></metadata><g><g><path d="M52,10H38c-1.104,0-2,0.896-2,2s0.896,2,2,2h9.172L34.586,26.586c-0.781,0.781-0.781,2.047,0,2.828    C34.977,29.805,35.488,30,36,30s1.023-0.195,1.414-0.586L50,16.828V26c0,1.104,0.896,2,2,2s2-0.896,2-2V12    C54,10.896,53.104,10,52,10z"/><path d="M26.586,34.586L14,47.172V38c0-1.104-0.896-2-2-2s-2,0.896-2,2v14c0,1.104,0.896,2,2,2h14c1.104,0,2-0.896,2-2    s-0.896-2-2-2h-9.172l12.586-12.586c0.781-0.781,0.781-2.047,0-2.828C28.634,33.805,27.366,33.805,26.586,34.586z"/></g></g></svg>