<svg width="50" height="39" viewBox="0 0 50 39" fill="none" xmlns="http://www.w3.org/2000/svg">
<path d="M46.8421 5.31579H23.5263C22.5789 5.31579 21.6316 4.89474 21.0526 4.10526L18.7368 1.21053C18.1579 0.473684 17.2105 0 16.2632 0H3.15789C1.42105 0 0 1.42105 0 3.15789V35.7368C0 37.4737 1.42105 38.8947 3.15789 38.8947H46.8421C48.5789 38.8947 50 37.4737 50 35.7368V8.47368C50 6.73684 48.5789 5.31579 46.8421 5.31579ZM32 24.5263H27.3684V29.1579C27.3684 30.4737 26.3158 31.5263 25 31.5263C23.6842 31.5263 22.6316 30.4737 22.6316 29.1579V24.5263H18C16.6842 24.5263 15.6316 23.4737 15.6316 22.1579C15.6316 20.8421 16.6842 19.7895 18 19.7895H22.6316V15.1579C22.6316 13.8421 23.6842 12.7895 25 12.7895C26.3158 12.7895 27.3684 13.8421 27.3684 15.1579V19.7895H32C33.3158 19.7895 34.3684 20.8421 34.3684 22.1579C34.3684 23.4211 33.3158 24.5263 32 24.5263Z" fill="#0D97FF"/>
</svg>
