<svg width="51" height="41" viewBox="0 0 51 41" fill="none" xmlns="http://www.w3.org/2000/svg">
<path d="M25.5 16.7211C20.3421 16.7211 15.8158 20.879 13.921 22.879C15.8158 24.879 20.3421 29.0369 25.5 29.0369C30.6579 29.0369 35.1842 24.879 37.0789 22.879C35.1842 20.879 30.6052 16.7211 25.5 16.7211ZM25.5 26.3C23.6052 26.3 22.0789 24.7737 22.0789 22.879C22.0789 20.9842 23.6052 19.4579 25.5 19.4579C27.3947 19.4579 28.921 20.9842 28.921 22.879C28.921 24.7737 27.3947 26.3 25.5 26.3Z" fill="#0D97FF"/>
<path d="M48.2895 5.77373H20.8684C20.4474 5.77373 20.0789 5.51058 19.9211 5.14215L18.5 1.66847C18.1842 0.826364 17.3421 0.300049 16.4474 0.300049H2.71053C1.5 0.300049 0.5 1.30005 0.5 2.51058V37.8264C0.5 39.0369 1.5 40.0369 2.71053 40.0369H48.2895C49.5 40.0369 50.5 39.0369 50.5 37.8264V7.98426C50.5 6.77373 49.5 5.77373 48.2895 5.77373ZM40.6053 23.9316C40.2895 24.2474 33.8158 32.3527 25.5 32.3527C17.1842 32.3527 10.7105 24.2474 10.3947 23.9316C9.92105 23.3527 9.92105 22.4579 10.3947 21.879C10.6579 21.5106 17.1842 13.4053 25.5 13.4053C33.8158 13.4053 40.2895 21.5106 40.6053 21.879C41.0789 22.4579 41.0789 23.3001 40.6053 23.9316Z" fill="#0D97FF"/>
</svg>
