<svg width="51" height="39" viewBox="0 0 51 39" fill="none" xmlns="http://www.w3.org/2000/svg">
<path d="M47.3421 5.31579H24.0263C23.0789 5.31579 22.1316 4.89474 21.5526 4.10526L19.2368 1.21053C18.6579 0.473684 17.7105 0 16.7632 0H3.65789C1.92105 0 0.5 1.42105 0.5 3.15789V35.7368C0.5 37.4737 1.92105 38.8947 3.65789 38.8947H47.3421C49.0789 38.8947 50.5 37.4737 50.5 35.7368V8.47368C50.5 6.73684 49.0789 5.31579 47.3421 5.31579ZM32.6579 25.8947C33.6053 26.8421 33.6053 28.3158 32.6579 29.2632C32.1842 29.7368 31.6053 29.9474 30.9737 29.9474C30.3421 29.9474 29.7632 29.7368 29.2895 29.2632L25.5 25.4737L21.7105 29.2632C21.2368 29.7368 20.6579 29.9474 20.0263 29.9474C19.3947 29.9474 18.8158 29.7368 18.3421 29.2632C17.3947 28.3158 17.3947 26.8421 18.3421 25.8947L22.1316 22.1053L18.3421 18.3158C17.3947 17.3684 17.3947 15.8947 18.3421 14.9474C19.2895 14 20.7632 14 21.7105 14.9474L25.5 18.7368L29.2895 14.9474C30.2368 14 31.7105 14 32.6579 14.9474C33.6053 15.8947 33.6053 17.3684 32.6579 18.3158L28.8684 22.1053L32.6579 25.8947Z" fill="#0D97FF"/>
</svg>
