<svg width="346" height="67" viewBox="0 0 346 67" fill="none" xmlns="http://www.w3.org/2000/svg">
<path d="M85.96 34H89.92L77.88 4H73.8L61.76 34H65.72L68.16 27.72H83.52L85.96 34ZM69.32 24.64L75.84 7.76L82.36 24.64H69.32ZM105.375 34.4C108.415 34.4 111.255 33.36 113.535 31.6V27.2C111.295 29.68 108.495 30.92 105.375 30.92C98.6953 30.92 94.1753 25.68 94.1753 19C94.1753 12.32 98.6953 7.08 105.375 7.08C108.455 7.08 111.255 8.32 113.535 10.8V6.4C111.255 4.64 108.415 3.6 105.375 3.6C96.8553 3.6 90.7353 10.48 90.7353 19C90.7353 27.52 96.8553 34.4 105.375 34.4ZM144.814 4L133.534 20.72L122.294 4H118.414V34H122.054V9.32L133.494 26.64L145.054 9.28V34H148.654V4H144.814ZM171.264 7.24V4H154.664V34H171.264V30.76H158.304V20.64H169.584V17.36H158.304V7.24H171.264Z" fill="#003399"/>
<path d="M201.494 18.56C203.814 17.32 205.334 15.04 205.334 12C205.334 7.24 201.614 4 196.974 4H186.734V34H199.334C203.934 34 207.614 30.8 207.614 26.04C207.614 22.08 205.014 19.44 201.494 18.56ZM201.694 12.32C201.694 15.16 199.414 17.48 196.574 17.48H190.374V7.24H196.574C199.414 7.24 201.694 9.52 201.694 12.32ZM198.854 30.76H190.374V20.52H198.854C201.694 20.52 203.974 22.84 203.974 25.6C203.974 28.44 201.694 30.76 198.854 30.76ZM219.876 13.6C216.076 13.6 213.436 15 211.916 17.2L214.356 19.36C215.556 17.56 217.356 16.6 219.716 16.6C222.436 16.6 224.676 17.92 224.676 20.96V23.32L221.036 22.72C214.036 21.56 211.316 24.72 211.316 28.28C211.316 31.84 213.876 34.4 217.436 34.4C220.036 34.4 222.676 33.08 224.836 31.16L225.036 34H228.156V21.2C228.156 16.04 224.476 13.6 219.876 13.6ZM214.916 28.12C214.916 26.16 216.356 24.44 221.396 25.36L224.676 25.92V28.2C222.796 29.92 220.556 31.24 218.236 31.24C216.236 31.24 214.916 30 214.916 28.12ZM243.88 13.6C241.2 13.6 238.92 14.8 237.4 16.64L237.24 14H234V34H237.52V21.92C237.52 19.04 239.92 16.72 242.92 16.72C245.88 16.72 248.12 18.88 248.12 21.76V34H251.68V21.36C251.68 16.84 248.36 13.6 243.88 13.6ZM274.316 31.68L264.436 22.8L273.996 14H269.516L261.036 21.8V4H257.516V34H261.036V24.08L274.316 36V31.68Z" fill="#002987"/>
<path fill-rule="evenodd" clip-rule="evenodd" d="M16.0222 40.4512C11.3682 40.4512 6.37115 39.1502 6.37115 39.1502C5.13815 38.8302 3.45615 38.2452 1.93615 37.6272C1.68215 37.5242 0.94315 37.1652 0.00415039 36.6962L1.93515 37.6802L41.0942 57.6412C42.8782 58.5512 44.3382 57.6562 44.3382 55.6532V38.4422C44.3382 36.4402 43.0152 33.8352 41.3982 32.6532C41.3982 32.6532 40.7791 32.2022 39.7001 31.4932C37.9741 32.6272 35.0652 34.4252 31.5851 36.1162C26.9181 38.3822 21.2311 40.4512 16.0222 40.4512Z" fill="#003399"/>
<path fill-rule="evenodd" clip-rule="evenodd" d="M41.094 3.35613L1.935 23.3171L0 24.3041C0.941 23.8341 1.682 23.4731 1.937 23.3701C3.456 22.7531 5.138 22.1681 6.371 21.8471C6.371 21.8471 11.368 20.5461 16.022 20.5461C21.209 20.5461 26.869 22.5971 31.524 24.8521C35.031 26.5511 37.964 28.3631 39.7 29.5051C40.779 28.7961 41.398 28.3441 41.398 28.3441C43.015 27.1631 44.338 24.5581 44.338 22.5551V5.34413C44.338 3.34113 42.878 2.44613 41.094 3.35613Z" fill="#0D97FF"/>
<path d="M62.8 59H67.84C72.808 59 76.84 54.968 76.84 50C76.84 45.032 72.808 41 67.84 41H62.8V59ZM64.984 57.056V42.944H67.84C71.632 42.944 74.656 46.064 74.656 50C74.656 53.936 71.632 57.056 67.84 57.056H64.984ZM81.3505 44.768C82.0945 44.768 82.7425 44.168 82.7425 43.4C82.7425 42.608 82.0945 41.984 81.3505 41.984C80.5825 41.984 79.9345 42.608 79.9345 43.4C79.9345 44.168 80.5825 44.768 81.3505 44.768ZM80.2705 59H82.3825V47H80.2705V59ZM95.209 47L95.113 48.752C94.153 47.528 92.761 46.76 91.105 46.76C87.721 46.76 85.585 49.496 85.585 53C85.585 56.48 87.721 59.24 91.105 59.24C92.713 59.24 94.081 58.52 95.041 57.344V58.856C95.041 61.472 93.649 63.128 91.609 63.128C89.953 63.128 88.729 62.48 87.769 61.568V63.872C88.777 64.568 89.953 65 91.465 65C94.945 65 97.129 62.36 97.129 58.856V47H95.209ZM91.441 57.344C89.089 57.344 87.673 55.4 87.673 53C87.673 50.576 89.089 48.632 91.441 48.632C93.121 48.632 94.561 49.928 95.041 51.728V54.272C94.561 56.048 93.121 57.344 91.441 57.344ZM102.21 44.768C102.954 44.768 103.602 44.168 103.602 43.4C103.602 42.608 102.954 41.984 102.21 41.984C101.442 41.984 100.794 42.608 100.794 43.4C100.794 44.168 101.442 44.768 102.21 44.768ZM101.13 59H103.242V47H101.13V59ZM112.331 56.864C111.971 57.248 111.563 57.416 111.035 57.416C110.051 57.416 109.451 56.816 109.451 55.64V48.656H112.691V47H109.427V42.92H107.315V47H105.755V48.656H107.315V55.64C107.315 57.776 108.755 59.24 110.987 59.24C112.091 59.24 112.931 58.904 113.507 58.304L112.331 56.864ZM119.786 46.76C117.506 46.76 115.922 47.6 115.01 48.92L116.474 50.216C117.194 49.136 118.274 48.56 119.69 48.56C121.322 48.56 122.666 49.352 122.666 51.176V52.592L120.482 52.232C116.282 51.536 114.65 53.432 114.65 55.568C114.65 57.704 116.186 59.24 118.322 59.24C119.882 59.24 121.466 58.448 122.762 57.296L122.882 59H124.754V51.32C124.754 48.224 122.546 46.76 119.786 46.76ZM116.81 55.472C116.81 54.296 117.674 53.264 120.698 53.816L122.666 54.152V55.52C121.538 56.552 120.194 57.344 118.802 57.344C117.602 57.344 116.81 56.6 116.81 55.472ZM132.029 59.24C133.109 59.24 133.973 58.904 134.549 58.304L133.373 56.864C133.013 57.248 132.605 57.416 132.077 57.416C131.093 57.416 130.493 56.816 130.493 55.64L130.469 41H128.357V55.64C128.357 57.776 129.773 59.24 132.029 59.24ZM150.555 59.24C155.643 59.24 159.339 55.112 159.339 50C159.339 44.888 155.643 40.76 150.555 40.76C145.443 40.76 141.771 44.888 141.771 50C141.771 55.112 145.443 59.24 150.555 59.24ZM150.555 57.152C146.571 57.152 143.835 54.008 143.835 50C143.835 45.992 146.571 42.848 150.555 42.848C154.563 42.848 157.251 45.992 157.251 50C157.251 54.008 154.563 57.152 150.555 57.152ZM168.291 46.76C166.683 46.76 165.315 47.48 164.403 48.584L164.307 47H162.363V59H164.475V51.752C164.475 50.024 165.915 48.632 167.715 48.632C169.491 48.632 170.835 49.928 170.835 51.656V59H172.971V51.416C172.971 48.704 170.979 46.76 168.291 46.76ZM182.472 46.76C180.84 46.76 179.496 47.48 178.56 48.608V41H176.472V59H178.368L178.464 57.272C179.4 58.496 180.792 59.24 182.472 59.24C185.856 59.24 187.992 56.48 187.992 53C187.992 49.52 185.856 46.76 182.472 46.76ZM182.136 57.344C180.408 57.344 179.016 56.072 178.56 54.296V51.704C179.016 49.928 180.408 48.632 182.136 48.632C184.488 48.632 185.928 50.576 185.928 53C185.928 55.424 184.488 57.344 182.136 57.344ZM195.761 59.24C199.241 59.24 201.617 56.456 201.617 53C201.617 49.52 199.241 46.76 195.761 46.76C192.257 46.76 189.905 49.52 189.905 53C189.905 56.456 192.257 59.24 195.761 59.24ZM195.761 57.344C193.409 57.344 191.993 55.424 191.993 53C191.993 50.576 193.409 48.632 195.761 48.632C198.065 48.632 199.529 50.576 199.529 53C199.529 55.424 198.065 57.344 195.761 57.344ZM208.779 46.76C206.499 46.76 204.915 47.6 204.003 48.92L205.467 50.216C206.187 49.136 207.267 48.56 208.683 48.56C210.315 48.56 211.659 49.352 211.659 51.176V52.592L209.475 52.232C205.275 51.536 203.643 53.432 203.643 55.568C203.643 57.704 205.179 59.24 207.315 59.24C208.875 59.24 210.459 58.448 211.755 57.296L211.875 59H213.747V51.32C213.747 48.224 211.539 46.76 208.779 46.76ZM205.803 55.472C205.803 54.296 206.667 53.264 209.691 53.816L211.659 54.152V55.52C210.531 56.552 209.187 57.344 207.795 57.344C206.595 57.344 205.803 56.6 205.803 55.472ZM222.845 46.76C221.453 46.76 220.157 47.576 219.293 48.824L219.197 47H217.253V59H219.365V52.28C219.365 50.144 220.997 48.632 222.749 48.632C223.613 48.632 224.165 48.872 224.429 49.016L225.461 47.48C224.789 46.976 224.117 46.76 222.845 46.76ZM235.268 41V48.632C234.332 47.48 232.964 46.76 231.332 46.76C227.948 46.76 225.812 49.52 225.812 53C225.812 56.48 227.948 59.24 231.332 59.24C233.012 59.24 234.38 58.496 235.34 57.272L235.436 59H237.332V41H235.268ZM231.668 57.344C229.316 57.344 227.9 55.424 227.9 53C227.9 50.576 229.316 48.632 231.668 48.632C233.396 48.632 234.812 49.928 235.268 51.704V54.296C234.812 56.072 233.396 57.344 231.668 57.344ZM242.413 44.768C243.157 44.768 243.805 44.168 243.805 43.4C243.805 42.608 243.157 41.984 242.413 41.984C241.645 41.984 240.997 42.608 240.997 43.4C240.997 44.168 241.645 44.768 242.413 44.768ZM241.333 59H243.445V47H241.333V59ZM253.416 46.76C251.808 46.76 250.44 47.48 249.528 48.584L249.432 47H247.488V59H249.6V51.752C249.6 50.024 251.04 48.632 252.84 48.632C254.616 48.632 255.96 49.928 255.96 51.656V59H258.096V51.416C258.096 48.704 256.104 46.76 253.416 46.76ZM270.381 47L270.285 48.752C269.325 47.528 267.933 46.76 266.277 46.76C262.893 46.76 260.757 49.496 260.757 53C260.757 56.48 262.893 59.24 266.277 59.24C267.885 59.24 269.253 58.52 270.213 57.344V58.856C270.213 61.472 268.821 63.128 266.781 63.128C265.125 63.128 263.901 62.48 262.941 61.568V63.872C263.949 64.568 265.125 65 266.637 65C270.117 65 272.301 62.36 272.301 58.856V47H270.381ZM266.613 57.344C264.261 57.344 262.845 55.4 262.845 53C262.845 50.576 264.261 48.632 266.613 48.632C268.293 48.632 269.733 49.928 270.213 51.728V54.272C269.733 56.048 268.293 57.344 266.613 57.344ZM282.128 59H287.168C292.136 59 296.168 54.968 296.168 50C296.168 45.032 292.136 41 287.168 41H282.128V59ZM284.312 57.056V42.944H287.168C290.96 42.944 293.984 46.064 293.984 50C293.984 53.936 290.96 57.056 287.168 57.056H284.312ZM309.511 53C309.511 49.352 307.495 46.76 304.063 46.76C300.535 46.76 298.351 49.448 298.351 53.024C298.351 56.6 300.511 59.24 304.063 59.24C306.319 59.24 307.951 58.208 308.935 56.432L307.447 55.4C306.487 56.888 305.575 57.392 304.135 57.392C301.903 57.392 300.631 55.904 300.415 53.696H309.487C309.511 53.456 309.511 53.216 309.511 53ZM304.111 48.584C306.151 48.584 307.375 49.928 307.591 52.04H300.463C300.775 49.976 302.023 48.584 304.111 48.584ZM325.925 46.76C324.173 46.76 322.685 47.624 321.797 48.944C321.053 47.6 319.661 46.76 317.957 46.76C316.421 46.76 315.149 47.432 314.309 48.464L314.213 47H312.269V59H314.381V51.632C314.381 49.976 315.725 48.632 317.405 48.632C319.037 48.632 320.261 49.88 320.261 51.512V59H322.397V51.632C322.397 49.976 323.693 48.632 325.397 48.632C327.029 48.632 328.253 49.88 328.253 51.512V59H330.389V51.272C330.389 48.656 328.517 46.76 325.925 46.76ZM338.918 59.24C342.398 59.24 344.774 56.456 344.774 53C344.774 49.52 342.398 46.76 338.918 46.76C335.414 46.76 333.062 49.52 333.062 53C333.062 56.456 335.414 59.24 338.918 59.24ZM338.918 57.344C336.566 57.344 335.15 55.424 335.15 53C335.15 50.576 336.566 48.632 338.918 48.632C341.222 48.632 342.686 50.576 342.686 53C342.686 55.424 341.222 57.344 338.918 57.344Z" fill="#0D97FF"/>
</svg>
