<?xml version="1.0" encoding="UTF-8"?>
<svg width="34px" height="33px" viewBox="0 0 34 33" version="1.1" xmlns="http://www.w3.org/2000/svg" xmlns:xlink="http://www.w3.org/1999/xlink">
    <!-- Generator: Sketch 49.2 (51160) - http://www.bohemiancoding.com/sketch -->
    <title>Group</title>
    <desc>Created with Sketch.</desc>
    <defs>
        <polygon id="path-1" points="0 0.4761 16.7312 0.4761 16.7312 28.4621 0 28.4621"></polygon>
    </defs>
    <g id="Symbols" stroke="none" stroke-width="1" fill="none" fill-rule="evenodd">
        <g id="TOPMB-Clean" transform="translate(-579.000000, -19.000000)">
            <g id="Group" transform="translate(579.000000, 19.000000)">
                <g id="Group-3" transform="translate(0.000000, 4.000000)">
                    <mask id="mask-2" fill="white">
                        <use xlink:href="#path-1"></use>
                    </mask>
                    <g id="Clip-2"></g>
                    <path d="M11.0762,10.5871 C11.0762,7.6491 11.8972,4.4951 11.8972,4.4951 C12.1002,3.7161 12.4692,2.6551 12.8582,1.6951 C12.9242,1.5351 13.1502,1.0691 13.4462,0.4761 L12.8252,1.6941 L0.2242,26.4141 C-0.3498,27.5401 0.2152,28.4621 1.4802,28.4621 L12.3442,28.4621 C13.6082,28.4621 15.2532,27.6271 15.9982,26.6061 C15.9982,26.6061 16.2832,26.2151 16.7312,25.5341 C16.0152,24.4451 14.8802,22.6081 13.8132,20.4111 C12.3822,17.4651 11.0762,13.8751 11.0762,10.5871" id="Fill-1" fill="#003399" mask="url(#mask-2)"></path>
                </g>
                <path d="M33.506,30.941 L20.905,6.221 L20.283,5 C20.579,5.594 20.807,6.062 20.872,6.223 C21.262,7.182 21.631,8.243 21.833,9.022 C21.833,9.022 22.654,12.176 22.654,15.114 C22.654,18.388 21.36,21.961 19.936,24.9 C18.864,27.114 17.72,28.965 17,30.061 C17.447,30.742 17.732,31.133 17.732,31.133 C18.478,32.154 20.122,32.989 21.386,32.989 L32.251,32.989 C33.515,32.989 34.08,32.067 33.506,30.941" id="Fill-4" fill="#FFFFFF"></path>
                <path d="M22.31,14.8897664 C22.31,11.9517664 21.489,8.79776641 21.489,8.79776641 C21.286,8.01876641 20.917,6.95776641 20.528,5.99776641 C20.462,5.83776641 20.235,5.36976641 19.938,4.77576641 L18.665,2.27776641 C18.548,2.05376641 18.438,1.84276641 18.338,1.65176641 L18.02,1.05876641 C17.973,0.967766407 17.659,0.476766407 17.641,0.456766407 C17.62,0.432766407 17.6,0.408766407 17.577,0.385766407 C17.573,0.382766407 17.569,0.379766407 17.566,0.375766407 C17.457,0.270766407 17.328,0.180766407 17.185,0.114766407 C17.181,0.112766407 17.038,0.0567664068 17.001,0.0457664068 C16.993,0.0437664068 16.983,0.0427664068 16.974,0.0397664068 C16.926,0.0267664068 16.805,0.00776640683 16.795,0.00576640683 C16.748,0.00076640683 16.589,-0.00123359317 16.558,0.00076640683 C16.525,0.00276640683 16.435,0.0117664068 16.423,0.0137664068 C16.017,0.0797664068 15.675,0.327766407 15.476,0.670766407 C15.445,0.722766407 14.946,1.69676641 14.65,2.26776641 L13.37,4.77876641 C13.074,5.37176641 12.848,5.83776641 12.782,5.99776641 C12.393,6.95776641 12.024,8.01876641 11.821,8.79776641 C11.821,8.79776641 11,11.9517664 11,14.8897664 C11,18.1777664 12.306,21.7677664 13.737,24.7137664 C14.804,26.9107664 15.939,28.7477664 16.655,29.8367664 C17.375,28.7407664 18.52,26.8897664 19.592,24.6757664 C21.015,21.7367664 22.31,18.1637664 22.31,14.8897664" id="Fill-6" fill="#005BFF"></path>
            </g>
        </g>
    </g>
</svg>