<?xml version="1.0" encoding="UTF-8"?>
<svg width="246px" height="80px" viewBox="0 0 246 80" version="1.1" xmlns="http://www.w3.org/2000/svg" xmlns:xlink="http://www.w3.org/1999/xlink">
    <!-- Generator: Sketch 58 (84663) - https://sketch.com -->
    <title>Logo AK Fondo Oscuro</title>
    <desc>Created with Sketch.</desc>
    <defs>
        <polygon id="path-1" points="0.5423 0.096 18.4593 0.096 18.4593 47.3617 0.5423 47.3617"></polygon>
    </defs>
    <g id="Logo-AK-Fondo-Oscuro" stroke="none" stroke-width="1" fill="none" fill-rule="evenodd">
        <g id="Group" transform="translate(12.000000, 13.000000)">
            <path d="M17.546155,23.6837 C17.546155,19.0297 18.847155,14.0327 18.847155,14.0327 C19.167155,12.7997 19.752155,11.1177 20.370155,9.5977 C20.473155,9.3437 20.832155,8.6047 21.301155,7.6657 L20.317155,9.5967 L0.356154976,48.7557 C-0.553845024,50.5397 0.341154976,51.9997 2.34415498,51.9997 L19.555155,51.9997 C21.557155,51.9997 24.162155,50.6767 25.344155,49.0597 C25.344155,49.0597 25.795155,48.4407 26.504155,47.3617 C25.370155,45.6357 23.572155,42.7267 21.881155,39.2467 C19.615155,34.5797 17.546155,28.8927 17.546155,23.6837" id="Fill-1" fill="#003399"></path>
            <path d="M52.641155,48.7556 L32.680155,9.5966 L31.693155,7.6616 C32.163155,8.6026 32.524155,9.3436 32.627155,9.5986 C33.244155,11.1176 33.829155,12.7996 34.150155,14.0326 C34.150155,14.0326 35.451155,19.0296 35.451155,23.6836 C35.451155,28.8706 33.400155,34.5306 31.145155,39.1856 C29.446155,42.6926 27.634155,45.6256 26.492155,47.3616 C27.201155,48.4406 27.653155,49.0596 27.653155,49.0596 C28.834155,50.6766 31.439155,51.9996 33.442155,51.9996 L50.653155,51.9996 C52.656155,51.9996 53.551155,50.5396 52.641155,48.7556" id="Fill-3" fill="#0D97FF"></path>
            <g id="Group-7" transform="translate(16.999855, 0.000000)">
                <mask id="mask-2" fill="white">
                    <use xlink:href="#path-1"></use>
                </mask>
                <g id="Clip-6"></g>
                <path d="M18.4593,23.6837 C18.4593,19.0297 17.1583,14.0327 17.1583,14.0327 C16.8383,12.7997 16.2533,11.1177 15.6353,9.5977 C15.5323,9.3437 15.1723,8.6027 14.7023,7.6617 L12.6843,3.7037 C12.5003,3.3487 12.3263,3.0147 12.1673,2.7127 L11.6623,1.7737 C11.5893,1.6297 11.0913,0.8517 11.0633,0.8197 C11.0293,0.7817 10.9973,0.7437 10.9613,0.7077 C10.9553,0.7017 10.9493,0.6977 10.9433,0.6917 C10.7713,0.5257 10.5673,0.3827 10.3413,0.2787 C10.3333,0.2747 10.1083,0.1867 10.0503,0.1697 C10.0353,0.1657 10.0213,0.1637 10.0063,0.1597 C9.9293,0.1397 9.7383,0.1077 9.7233,0.1057 C9.6483,0.0967 9.3963,0.0947 9.3463,0.0967 C9.2943,0.0997 9.1523,0.1157 9.1333,0.1187 C8.4913,0.2227 7.9483,0.6157 7.6333,1.1597 C7.5833,1.2407 6.7943,2.7837 6.3253,3.6887 L4.2973,7.6657 C3.8283,8.6047 3.4693,9.3437 3.3663,9.5977 C2.7493,11.1177 2.1643,12.7997 1.8433,14.0327 C1.8433,14.0327 0.5423,19.0297 0.5423,23.6837 C0.5423,28.8927 2.6113,34.5797 4.8783,39.2467 C6.5683,42.7267 8.3663,45.6357 9.5013,47.3617 C10.6423,45.6257 12.4543,42.6927 14.1533,39.1857 C16.4083,34.5307 18.4593,28.8707 18.4593,23.6837" id="Fill-5" fill="#005BFF" mask="url(#mask-2)"></path>
            </g>
            <path d="M68.722055,33.4243 C68.722055,34.6723 69.123055,35.6793 69.925055,36.4443 C70.726055,37.2113 71.804055,37.5933 73.158055,37.5933 C75.938055,37.5933 78.806055,36.2403 81.764055,33.5313 L81.764055,30.4853 L77.381055,29.7363 C74.281055,29.1673 72.063055,29.2653 70.726055,30.0303 C69.390055,30.7973 68.722055,31.9273 68.722055,33.4243 M75.350055,14.0223 C78.592055,14.0223 81.247055,14.8873 83.314055,16.6143 C85.380055,18.3433 86.414055,20.8633 86.414055,24.1773 L86.414055,41.2813 L82.245055,41.2813 L81.978055,37.4873 C78.735055,40.3733 75.438055,41.8163 72.089055,41.8163 C69.702055,41.8163 67.742055,41.0503 66.210055,39.5183 C64.677055,37.9863 63.912055,36.0263 63.912055,33.6383 C63.912055,30.9653 64.989055,28.8813 67.145055,27.3853 C69.301055,25.8883 72.552055,25.4963 76.900055,26.2083 L81.764055,27.0103 L81.764055,23.8563 C81.764055,21.9333 81.149055,20.4813 79.920055,19.5003 C78.690055,18.5213 77.095055,18.0313 75.136055,18.0313 C72.000055,18.0313 69.612055,19.2603 67.974055,21.7193 L64.713055,18.8323 C66.922055,15.6263 70.468055,14.0223 75.350055,14.0223" id="Fill-8" fill="#FFFFFF"></path>
            <polygon id="Fill-10" fill="#FFFFFF" points="115.650455 38.1819 115.650455 43.9539 97.904455 28.0259 97.904455 41.2819 93.201455 41.2819 93.201455 1.1939 97.904455 1.1939 97.904455 24.9789 109.236455 14.5569 115.222455 14.5569 102.448455 26.3159"></polygon>
            <path d="M130.241355,18.0848 C127.960355,18.0848 126.125355,18.7798 124.736355,20.1688 C123.346355,21.5588 122.472355,23.4298 122.117355,25.7808 L137.991355,25.7808 C137.742355,23.3938 136.949355,21.5148 135.613355,20.1428 C134.276355,18.7708 132.486355,18.0848 130.241355,18.0848 M142.267355,27.9198 C142.267355,28.5968 142.249355,29.1128 142.214355,29.4688 L122.010355,29.4688 C122.259355,31.9998 123.096355,34.0048 124.522355,35.4818 C125.947355,36.9618 127.871355,37.7008 130.294355,37.7008 C131.933355,37.7008 133.305355,37.3718 134.410355,36.7118 C135.514355,36.0528 136.602355,34.9038 137.671355,33.2648 L140.984355,35.5628 C138.668355,39.7318 135.052355,41.8158 130.134355,41.8158 C126.250355,41.8158 123.159355,40.5248 120.861355,37.9408 C118.562355,35.3578 117.413355,32.0348 117.413355,27.9728 C117.413355,23.9108 118.571355,20.5708 120.887355,17.9508 C123.203355,15.3318 126.286355,14.0218 130.134355,14.0218 C133.876355,14.0218 136.833355,15.3048 139.007355,17.8708 C141.180355,20.4368 142.267355,23.7868 142.267355,27.9198" id="Fill-12" fill="#FFFFFF"></path>
            <path d="M158.356055,18.0848 C156.075055,18.0848 154.240055,18.7798 152.850055,20.1688 C151.461055,21.5588 150.587055,23.4298 150.232055,25.7808 L166.106055,25.7808 C165.857055,23.3938 165.064055,21.5148 163.728055,20.1428 C162.391055,18.7708 160.601055,18.0848 158.356055,18.0848 M170.382055,27.9198 C170.382055,28.5968 170.364055,29.1128 170.329055,29.4688 L150.125055,29.4688 C150.374055,31.9998 151.211055,34.0048 152.637055,35.4818 C154.062055,36.9618 155.986055,37.7008 158.409055,37.7008 C160.048055,37.7008 161.420055,37.3718 162.525055,36.7118 C163.629055,36.0528 164.717055,34.9038 165.785055,33.2648 L169.099055,35.5628 C166.783055,39.7318 163.166055,41.8158 158.249055,41.8158 C154.365055,41.8158 151.274055,40.5248 148.975055,37.9408 C146.677055,35.3578 145.528055,32.0348 145.528055,27.9728 C145.528055,23.9108 146.686055,20.5708 149.002055,17.9508 C151.318055,15.3318 154.401055,14.0218 158.249055,14.0218 C161.991055,14.0218 164.948055,15.3048 167.122055,17.8708 C169.295055,20.4368 170.382055,23.7868 170.382055,27.9198" id="Fill-14" fill="#FFFFFF"></path>
            <path d="M177.944955,39.5982 C176.465955,38.1202 175.726955,36.1862 175.726955,33.7992 L175.726955,1.1942 L180.430955,1.1942 L180.483955,33.7992 C180.483955,36.4362 181.659955,37.7542 184.011955,37.7542 C185.151955,37.7542 186.113955,37.3442 186.897955,36.5252 L189.516955,39.7312 C188.198955,41.1212 186.327955,41.8162 183.904955,41.8162 C181.409955,41.8162 179.423955,41.0772 177.944955,39.5982 Z" id="Fill-16" fill="#FFFFFF"></path>
            <path d="M195.182555,33.4243 C195.182555,34.6723 195.583555,35.6793 196.385555,36.4443 C197.186555,37.2113 198.264555,37.5933 199.618555,37.5933 C202.398555,37.5933 205.266555,36.2403 208.224555,33.5313 L208.224555,30.4853 L203.841555,29.7363 C200.741555,29.1673 198.523555,29.2653 197.186555,30.0303 C195.850555,30.7973 195.182555,31.9273 195.182555,33.4243 M201.810555,14.0223 C205.052555,14.0223 207.707555,14.8873 209.774555,16.6143 C211.840555,18.3433 212.874555,20.8633 212.874555,24.1773 L212.874555,41.2813 L208.705555,41.2813 L208.438555,37.4873 C205.195555,40.3733 201.898555,41.8163 198.549555,41.8163 C196.162555,41.8163 194.202555,41.0503 192.670555,39.5183 C191.137555,37.9863 190.372555,36.0263 190.372555,33.6383 C190.372555,30.9653 191.449555,28.8813 193.605555,27.3853 C195.761555,25.8883 199.012555,25.4963 203.360555,26.2083 L208.224555,27.0103 L208.224555,23.8563 C208.224555,21.9333 207.609555,20.4813 206.380555,19.5003 C205.150555,18.5213 203.555555,18.0313 201.596555,18.0313 C198.460555,18.0313 196.072555,19.2603 194.434555,21.7193 L191.173555,18.8323 C193.382555,15.6263 196.928555,14.0223 201.810555,14.0223" id="Fill-18" fill="#FFFFFF"></path>
        </g>
    </g>
</svg>