<?xml version="1.0" encoding="UTF-8"?>
<svg width="80px" height="80px" viewBox="0 0 80 80" version="1.1" xmlns="http://www.w3.org/2000/svg" xmlns:xlink="http://www.w3.org/1999/xlink">
    <!-- Generator: Sketch 58 (84663) - https://sketch.com -->
    <title>Akeela Icono</title>
    <desc>Created with Sketch.</desc>
    <defs>
        <polygon id="path-1" points="0.5423 0.096 18.4593 0.096 18.4593 47.3617 0.5423 47.3617"></polygon>
    </defs>
    <g id="Akeela-Icono" stroke="none" stroke-width="1" fill="none" fill-rule="evenodd">
        <path d="M29.8744119,36.8973249 C29.8744119,32.2783868 31.1997513,27.3190328 31.1997513,27.3190328 C31.5257379,26.0953219 32.1216822,24.4259936 32.7512439,22.9174449 C32.8561708,22.6653584 33.2218871,21.9319258 33.6996612,21 L32.6972524,22.9164524 L12.362818,61.7804394 C11.4357935,63.5509992 12.3475374,65 14.3880099,65 L31.9209967,65 C33.9604505,65 36.6141854,63.6869671 37.8182985,62.0821491 C37.8182985,62.0821491 38.2777359,61.4678125 39,60.3969414 C37.8447849,58.6839446 36.0131476,55.7968602 34.290512,52.3430775 C31.9821192,47.7112374 29.8744119,42.0670817 29.8744119,36.8973249" id="Fill-1" fill="#003399"></path>
        <path d="M64.6371957,61.7807298 L44.3035285,22.920249 L43.2981014,21 C43.7768762,21.9338265 44.144616,22.6691777 44.249539,22.9222337 C44.8780583,24.429654 45.4739801,26.0988317 45.8009731,27.3224322 C45.8009731,27.3224322 47.1262624,32.2813388 47.1262624,36.8998602 C47.1262624,42.0473183 45.0369707,47.6641707 42.7398704,52.2836844 C41.0091505,55.7639497 39.1633209,58.6745906 38,60.3973567 C38.7222369,61.4681312 39.1826756,62.0824124 39.1826756,62.0824124 C40.3857246,63.6870856 43.0393593,65 45.0797549,65 L62.6120802,65 C64.6524757,65 65.5641852,63.55113 64.6371957,61.7807298" id="Fill-3" fill="#0D97FF"></path>
        <g id="Group-7" transform="translate(29.000000, 13.000000)">
            <mask id="mask-2" fill="white">
                <use xlink:href="#path-1"></use>
            </mask>
            <g id="Clip-6"></g>
            <path d="M18.4593,23.6837 C18.4593,19.0297 17.1583,14.0327 17.1583,14.0327 C16.8383,12.7997 16.2533,11.1177 15.6353,9.5977 C15.5323,9.3437 15.1723,8.6027 14.7023,7.6617 L12.6843,3.7037 C12.5003,3.3487 12.3263,3.0147 12.1673,2.7127 L11.6623,1.7737 C11.5893,1.6297 11.0913,0.8517 11.0633,0.8197 C11.0293,0.7817 10.9973,0.7437 10.9613,0.7077 C10.9553,0.7017 10.9493,0.6977 10.9433,0.6917 C10.7713,0.5257 10.5673,0.3827 10.3413,0.2787 C10.3333,0.2747 10.1083,0.1867 10.0503,0.1697 C10.0353,0.1657 10.0213,0.1637 10.0063,0.1597 C9.9293,0.1397 9.7383,0.1077 9.7233,0.1057 C9.6483,0.0967 9.3963,0.0947 9.3463,0.0967 C9.2943,0.0997 9.1523,0.1157 9.1333,0.1187 C8.4913,0.2227 7.9483,0.6157 7.6333,1.1597 C7.5833,1.2407 6.7943,2.7837 6.3253,3.6887 L4.2973,7.6657 C3.8283,8.6047 3.4693,9.3437 3.3663,9.5977 C2.7493,11.1177 2.1643,12.7997 1.8433,14.0327 C1.8433,14.0327 0.5423,19.0297 0.5423,23.6837 C0.5423,28.8927 2.6113,34.5797 4.8783,39.2467 C6.5683,42.7267 8.3663,45.6357 9.5013,47.3617 C10.6423,45.6257 12.4543,42.6927 14.1533,39.1857 C16.4083,34.5307 18.4593,28.8707 18.4593,23.6837" id="Fill-5" fill="#005BFF" mask="url(#mask-2)"></path>
        </g>
    </g>
</svg>