<svg width="503" height="223" viewBox="0 0 503 223" fill="none" xmlns="http://www.w3.org/2000/svg">
<rect width="500" height="223" fill="#F9F9F9"/>
<path d="M127.214 175C131.385 175 134.765 171.643 134.765 167.5C134.765 163.357 131.385 160 127.214 160C123.044 160 119.663 163.357 119.663 167.5C119.663 171.643 123.044 175 127.214 175ZM132.866 176.91L130.046 188.125L128.158 180.156L130.046 176.875H124.383L126.27 180.156L124.383 188.125L121.563 176.91C117.357 177.109 114 180.525 114 184.75V187.188C114 188.74 115.268 190 116.832 190H137.597C139.16 190 140.429 188.74 140.429 187.188V184.75C140.429 180.525 137.072 177.109 132.866 176.91Z" fill="#E5E5E5"/>
<path d="M349 97C340.71 97 334 103.709 334 112C334 120.29 340.709 127 349 127C351.913 127 354.767 126.145 357.19 124.567C357.916 124.094 358.075 123.098 357.526 122.428L356.91 121.676C356.446 121.109 355.629 120.97 355.013 121.366C353.229 122.509 351.136 123.129 349 123.129C342.863 123.129 337.871 118.137 337.871 112C337.871 105.863 342.863 100.871 349 100.871C355.057 100.871 360.129 104.356 360.129 110.548C360.129 112.894 358.853 115.371 356.611 115.61C355.561 115.583 355.588 114.833 355.796 113.794L357.213 106.469C357.386 105.574 356.7 104.742 355.788 104.742H353.067C352.866 104.742 352.672 104.816 352.523 104.95C352.373 105.083 352.277 105.268 352.255 105.467L352.254 105.473C351.365 104.39 349.808 104.156 348.627 104.156C344.116 104.156 340.29 107.92 340.29 113.317C340.29 117.267 342.515 119.72 346.097 119.72C347.729 119.72 349.567 118.774 350.633 117.402C351.208 119.464 353.089 119.464 354.909 119.464C361.497 119.464 364 115.133 364 110.548C364 102.302 357.348 97 349 97ZM347.689 115.413C346.343 115.413 345.507 114.468 345.507 112.947C345.507 110.226 347.369 108.548 349.053 108.548C350.402 108.548 351.207 109.47 351.207 111.014C351.207 113.74 349.158 115.413 347.689 115.413Z" fill="#999999"/>
<path d="M277.144 118.199L270.582 115.387C270.301 115.267 269.99 115.242 269.694 115.315C269.398 115.388 269.134 115.555 268.941 115.791L266.035 119.342C261.474 117.191 257.803 113.52 255.652 108.959L259.203 106.053C259.44 105.861 259.607 105.596 259.68 105.3C259.753 105.004 259.728 104.693 259.608 104.412L256.795 97.8497C256.663 97.5476 256.43 97.3009 256.136 97.1522C255.842 97.0035 255.505 96.9622 255.184 97.0352L249.09 98.4415C248.78 98.513 248.504 98.6875 248.306 98.9364C248.108 99.1853 248 99.494 248 99.812C248 114.842 260.182 127 275.188 127C275.506 127 275.815 126.893 276.064 126.695C276.313 126.497 276.488 126.22 276.559 125.91L277.965 119.816C278.038 119.493 277.996 119.155 277.846 118.86C277.696 118.565 277.448 118.331 277.144 118.199Z" fill="#999999"/>
<path d="M223.429 180.357C223.429 180.949 222.949 181.429 222.357 181.429H215.929C215.337 181.429 214.857 180.949 214.857 180.357V177.143H202V186.786C202 188.5 203.5 190 205.214 190H233.071C234.786 190 236.286 188.5 236.286 186.786V177.143H223.429V180.357ZM233.071 166.429H227.714V163.214C227.714 161.5 226.214 160 224.5 160H213.786C212.071 160 210.571 161.5 210.571 163.214V166.429H205.214C203.5 166.429 202 167.929 202 169.643V175H236.286V169.643C236.286 167.929 234.786 166.429 233.071 166.429ZM223.429 166.429H214.857V164.286H223.429V166.429Z" fill="#E5E5E5"/>
<path d="M321.547 188.125H320.375V161.406C320.375 160.63 319.745 160 318.969 160H299.281C298.505 160 297.875 160.63 297.875 161.406V188.125H296.703C296.315 188.125 296 188.44 296 188.828V190H322.25V188.828C322.25 188.44 321.935 188.125 321.547 188.125ZM303.5 164.453C303.5 164.065 303.815 163.75 304.203 163.75H306.547C306.935 163.75 307.25 164.065 307.25 164.453V166.797C307.25 167.185 306.935 167.5 306.547 167.5H304.203C303.815 167.5 303.5 167.185 303.5 166.797V164.453ZM303.5 170.078C303.5 169.69 303.815 169.375 304.203 169.375H306.547C306.935 169.375 307.25 169.69 307.25 170.078V172.422C307.25 172.81 306.935 173.125 306.547 173.125H304.203C303.815 173.125 303.5 172.81 303.5 172.422V170.078ZM306.547 178.75H304.203C303.815 178.75 303.5 178.435 303.5 178.047V175.703C303.5 175.315 303.815 175 304.203 175H306.547C306.935 175 307.25 175.315 307.25 175.703V178.047C307.25 178.435 306.935 178.75 306.547 178.75ZM311 188.125H307.25V183.203C307.25 182.815 307.565 182.5 307.953 182.5H310.297C310.685 182.5 311 182.815 311 183.203V188.125ZM314.75 178.047C314.75 178.435 314.435 178.75 314.047 178.75H311.703C311.315 178.75 311 178.435 311 178.047V175.703C311 175.315 311.315 175 311.703 175H314.047C314.435 175 314.75 175.315 314.75 175.703V178.047ZM314.75 172.422C314.75 172.81 314.435 173.125 314.047 173.125H311.703C311.315 173.125 311 172.81 311 172.422V170.078C311 169.69 311.315 169.375 311.703 169.375H314.047C314.435 169.375 314.75 169.69 314.75 170.078V172.422ZM314.75 166.797C314.75 167.185 314.435 167.5 314.047 167.5H311.703C311.315 167.5 311 167.185 311 166.797V164.453C311 164.065 311.315 163.75 311.703 163.75H314.047C314.435 163.75 314.75 164.065 314.75 164.453V166.797Z" fill="#E5E5E5"/>
<path d="M430.094 126.395C421.58 114.053 420 112.786 420 108.25C420 102.037 425.037 97 431.25 97C437.463 97 442.5 102.037 442.5 108.25C442.5 112.786 440.92 114.053 432.406 126.395C431.847 127.202 430.652 127.202 430.094 126.395ZM431.25 112.937C433.839 112.937 435.937 110.839 435.937 108.25C435.937 105.661 433.839 103.562 431.25 103.562C428.661 103.562 426.562 105.661 426.562 108.25C426.562 110.839 428.661 112.937 431.25 112.937Z" fill="#999999"/>
<path d="M188.938 100.75H180.5V106.375H169.25V100.75H160.812C159.26 100.75 158 102.01 158 103.562V124.188C158 125.74 159.26 127 160.812 127H188.938C190.49 127 191.75 125.74 191.75 124.188V103.562C191.75 102.01 190.49 100.75 188.938 100.75ZM174.875 110.125C176.943 110.125 178.625 111.807 178.625 113.875C178.625 115.943 176.943 117.625 174.875 117.625C172.807 117.625 171.125 115.943 171.125 113.875C171.125 111.807 172.807 110.125 174.875 110.125ZM180.342 123.25H169.408C168.799 123.25 168.307 122.664 168.494 122.09C168.98 120.59 170.393 119.5 172.062 119.5H172.543C173.264 119.799 174.049 119.969 174.875 119.969C175.701 119.969 176.492 119.799 177.207 119.5H177.688C179.352 119.5 180.764 120.584 181.256 122.09C181.443 122.664 180.951 123.25 180.342 123.25ZM178.625 98.875C178.625 97.8379 177.787 97 176.75 97H173C171.963 97 171.125 97.8379 171.125 98.875V104.5H178.625V98.875Z" fill="#999999"/>
<path d="M288 57.8571C288 59.0404 288.96 60 290.143 60H328.714C329.898 60 330.857 59.0404 330.857 57.8571V36.4286H288V57.8571ZM318 43.9286C318 43.3366 318.479 42.8571 319.071 42.8571H325.5C326.092 42.8571 326.571 43.3366 326.571 43.9286V46.0714C326.571 46.6634 326.092 47.1429 325.5 47.1429H319.071C318.479 47.1429 318 46.6634 318 46.0714V43.9286ZM318 51.9643C318 51.6683 318.24 51.4286 318.536 51.4286H326.036C326.332 51.4286 326.571 51.6683 326.571 51.9643V53.0357C326.571 53.3317 326.332 53.5714 326.036 53.5714H318.536C318.24 53.5714 318 53.3317 318 53.0357V51.9643ZM292.286 45.5357C292.286 45.2397 292.525 45 292.821 45H313.179C313.475 45 313.714 45.2397 313.714 45.5357V46.6071C313.714 46.9031 313.475 47.1429 313.179 47.1429H292.821C292.525 47.1429 292.286 46.9031 292.286 46.6071V45.5357ZM292.286 51.9643C292.286 51.6683 292.525 51.4286 292.821 51.4286H304.607C304.903 51.4286 305.143 51.6683 305.143 51.9643V53.0357C305.143 53.3317 304.903 53.5714 304.607 53.5714H292.821C292.525 53.5714 292.286 53.3317 292.286 53.0357V51.9643ZM329.786 30H289.071C288.479 30 288 30.4795 288 31.0714V34.2857H330.857V31.0714C330.857 30.4795 330.378 30 329.786 30Z" fill="#E5E5E5"/>
<path d="M408.143 36.4286V37.5C408.143 37.6421 408.086 37.7784 407.986 37.8788C407.885 37.9793 407.749 38.0357 407.607 38.0357H406V38.8393C406 39.2831 405.64 39.6429 405.196 39.6429H378.946C378.503 39.6429 378.143 39.2831 378.143 38.8393V38.0357H376.536C376.394 38.0357 376.257 37.9793 376.157 37.8788C376.056 37.7784 376 37.6421 376 37.5V36.4286C376 36.3226 376.031 36.219 376.09 36.1309C376.149 36.0428 376.233 35.9741 376.331 35.9336L391.867 30.0407C391.998 29.9864 392.145 29.9864 392.276 30.0407L407.812 35.9336C407.91 35.9741 407.994 36.0428 408.053 36.1309C408.111 36.219 408.143 36.3226 408.143 36.4286ZM406.536 56.7857H377.607C376.72 56.7857 376 57.5052 376 58.3929V59.4643C376 59.6064 376.056 59.7426 376.157 59.8431C376.257 59.9436 376.394 60 376.536 60H407.607C407.749 60 407.885 59.9436 407.986 59.8431C408.086 59.7426 408.143 59.6064 408.143 59.4643V58.3929C408.143 57.5052 407.423 56.7857 406.536 56.7857ZM381.357 40.7143V53.5714H378.946C378.503 53.5714 378.143 53.9312 378.143 54.375V55.7143H406V54.375C406 53.9312 405.64 53.5714 405.196 53.5714H402.786V40.7143H398.5V53.5714H394.214V40.7143H389.929V53.5714H385.643V40.7143H381.357Z" fill="#E5E5E5"/>
<path d="M465.534 57.313C462.11 53.7804 462.174 48.0839 465.615 44.5641L477.906 31.9922C480.502 29.336 484.723 29.3358 487.32 31.9922C489.892 34.6227 489.895 38.867 487.32 41.5006L476.606 52.4489C474.857 54.2382 471.999 54.2132 470.279 52.3904C468.622 50.6344 468.676 47.851 470.364 46.1237L478.787 37.5201C479.149 37.1501 479.742 37.1438 480.112 37.5059L481.452 38.8172C481.822 39.1794 481.828 39.773 481.466 40.1429L473.045 48.7457C472.756 49.0413 472.738 49.5325 473.007 49.8175C473.263 50.089 473.665 50.0936 473.926 49.8272L484.64 38.8789C485.789 37.7034 485.789 35.7896 484.639 34.6134C483.515 33.4634 481.712 33.4628 480.587 34.6134L468.296 47.1853C466.259 49.2689 466.228 52.6415 468.226 54.7036C470.219 56.7598 473.44 56.7624 475.437 54.7203L485.519 44.4079C485.88 44.0377 486.474 44.031 486.844 44.3929L488.185 45.7033C488.555 46.0652 488.562 46.6588 488.2 47.029L478.118 57.3414C474.627 60.912 468.981 60.8697 465.534 57.313Z" fill="#E5E5E5"/>
<path d="M222.261 34H205.739C204.226 34 203 35.226 203 36.7385V53.2615C203 54.774 204.226 56 205.739 56H222.261C223.774 56 225 54.774 225 53.2615V36.7385C225 35.226 223.774 34 222.261 34ZM233.112 36.1599L226.833 40.4911V49.5089L233.112 53.8344C234.327 54.6708 236 53.8172 236 52.3563V37.638C236 36.1828 234.333 35.3234 233.112 36.1599Z" fill="#E5E5E5"/>
<path d="M388.031 164.219C388.031 161.889 389.92 160 392.25 160C394.58 160 396.469 161.889 396.469 164.219C396.469 166.549 394.58 168.438 392.25 168.438C389.92 168.438 388.031 166.549 388.031 164.219ZM402.951 164.299C402.219 163.567 401.031 163.567 400.299 164.299L395.223 169.375H389.277L384.201 164.299C383.469 163.567 382.281 163.567 381.549 164.299C380.817 165.031 380.817 166.219 381.549 166.951L387.094 172.495V188.125C387.094 189.161 387.933 190 388.969 190H389.906C390.942 190 391.781 189.161 391.781 188.125V181.562H392.719V188.125C392.719 189.161 393.558 190 394.594 190H395.531C396.567 190 397.406 189.161 397.406 188.125V172.495L402.951 166.951C403.683 166.219 403.683 165.031 402.951 164.299Z" fill="#E5E5E5"/>
<path d="M121.031 34.2188C121.031 31.8888 122.92 30 125.25 30C127.58 30 129.469 31.8888 129.469 34.2188C129.469 36.5487 127.58 38.4375 125.25 38.4375C122.92 38.4375 121.031 36.5487 121.031 34.2188ZM135.951 34.2992C135.219 33.567 134.031 33.567 133.299 34.2992L128.223 39.375H122.277L117.201 34.2992C116.469 33.567 115.281 33.567 114.549 34.2992C113.817 35.0314 113.817 36.2186 114.549 36.9509L120.094 42.4954V58.125C120.094 59.1605 120.933 60 121.969 60H122.906C123.942 60 124.781 59.1605 124.781 58.125V51.5625H125.719V58.125C125.719 59.1605 126.558 60 127.594 60H128.531C129.567 60 130.406 59.1605 130.406 58.125V42.4954L135.951 36.9508C136.683 36.2186 136.683 35.0314 135.951 34.2992V34.2992Z" fill="#E5E5E5"/>
<path d="M499.25 165H484.25L479.25 160H466.75C464.679 160 463 161.679 463 163.75V186.25C463 188.321 464.679 190 466.75 190H499.25C501.321 190 503 188.321 503 186.25V168.75C503 166.679 501.321 165 499.25 165Z" fill="#E5E5E5"/>
</svg>
