<svg xmlns="http://www.w3.org/2000/svg" xmlns:xlink="http://www.w3.org/1999/xlink" version="1.1" x="0px" y="0px" viewBox="0 0 90 112.5" style="enable-background:new 0 0 90 90;" xml:space="preserve"><path d="M35.2324219,47.3261719h-9.0708008c-0.4101563,0-0.7788086,0.25-0.9296875,0.6318359  c-0.1508789,0.3808594-0.0537109,0.8164063,0.2451172,1.0966797l18.8383789,17.6972656  C44.5078125,66.9326172,44.7539063,67.0234375,45,67.0234375s0.4921875-0.0908203,0.6845703-0.2714844l18.8383789-17.6972656  c0.2988281-0.2802734,0.3959961-0.7158203,0.2451172-1.0966797c-0.1508789-0.3818359-0.5195313-0.6318359-0.9296875-0.6318359  h-9.0708008V30.4648438c0-0.5527344-0.4477539-1-1-1H36.2324219c-0.5522461,0-1,0.4472656-1,1V47.3261719z M36.2324219,49.3261719  c0.5522461,0,1-0.4472656,1-1V31.4648438h15.5351563v16.8613281c0,0.5527344,0.4477539,1,1,1h7.5458984L45,64.6513672  L28.6865234,49.3261719H36.2324219z"/><path d="M25.1616211,74.5712891c0,0.5527344,0.4477539,1,1,1h37.6767578c0.5522461,0,1-0.4472656,1-1v-4.7880859  c0-0.5527344-0.4477539-1-1-1H26.1616211c-0.5522461,0-1,0.4472656-1,1V74.5712891z M27.1616211,70.7832031h35.6767578v2.7880859  H27.1616211V70.7832031z"/><path d="M35.2324219,26.9453125c0,0.5527344,0.4477539,1,1,1h17.5351563c0.5522461,0,1-0.4472656,1-1v-4.1435547  c0-0.5527344-0.4477539-1-1-1H36.2324219c-0.5522461,0-1,0.4472656-1,1V26.9453125z M37.2324219,23.8017578h15.5351563v2.1435547  H37.2324219V23.8017578z"/><path d="M36.2324219,20.5722656h17.5351563c0.5522461,0,1-0.4472656,1-1v-4.1435547c0-0.5527344-0.4477539-1-1-1H36.2324219  c-0.5522461,0-1,0.4472656-1,1v4.1435547C35.2324219,20.125,35.6801758,20.5722656,36.2324219,20.5722656z M37.2324219,16.4287109  h15.5351563v2.1435547H37.2324219V16.4287109z"/></svg>