<svg width="50" height="43" viewBox="0 0 50 43" fill="none" xmlns="http://www.w3.org/2000/svg">
<path d="M33.2631 4.26317L32 0.78949H19.3684V18H34.0526V24.8948H50V4.26317H33.2631Z" fill="#979797"/>
<path d="M12.6842 17.9473H0V42.0526H30.6316V21.421H13.9474L12.6842 17.9473Z" fill="#979797"/>
<path d="M5.10529 7.21053H10.8421L8.42108 9.57895L10.4211 11.5789L16.2106 5.78947L10.4211 0L8.42108 1.94737L10.8421 4.36842H2.26318V14.9474H5.10529V7.21053Z" fill="#979797"/>
<path d="M44.8947 35.6316H39.1579L41.5789 33.2631L39.5789 31.2631L33.7368 37.0526L39.5789 42.8421L41.5789 40.8947L39.1579 38.4737H47.7368V27.8947H44.8947V35.6316Z" fill="#979797"/>
</svg>
