<svg width="50" height="39" viewBox="0 0 50 39" fill="none" xmlns="http://www.w3.org/2000/svg">
<path d="M46.8421 5.31579H23.5263C22.5789 5.31579 21.6316 4.89474 21.0526 4.10526L18.7368 1.21053C18.1579 0.473684 17.2105 0 16.2632 0H3.15789C1.42105 0 0 1.42105 0 3.15789V35.7368C0 37.4737 1.42105 38.8947 3.15789 38.8947H46.8421C48.5789 38.8947 50 37.4737 50 35.7368V8.47368C50 6.73684 48.5789 5.31579 46.8421 5.31579ZM33.6842 19.0526L24.7895 28.4737C24.3158 28.9474 23.7368 29.2105 23.0526 29.2105C22.4211 29.2105 21.7895 28.9474 21.3158 28.4737L16.2632 23.1579C15.3684 22.2105 15.4211 20.6842 16.3684 19.7895C17.3158 18.8947 18.8421 18.9474 19.7368 19.8947L23.0526 23.4211L30.2632 15.7895C31.1579 14.8421 32.6842 14.7895 33.6316 15.6842C34.5789 16.5789 34.6316 18.1053 33.6842 19.0526Z" fill="#9B9B9B"/>
</svg>
