<svg width="50" height="39" viewBox="0 0 50 39" fill="none" xmlns="http://www.w3.org/2000/svg">
<path d="M46.8421 5.31579H23.5263C22.5789 5.31579 21.6316 4.89474 21.0526 4.10526L18.7368 1.21053C18.1579 0.473684 17.2105 0 16.2632 0H3.15789C1.42105 0 0 1.42105 0 3.15789V35.7368C0 37.4737 1.42105 38.8947 3.15789 38.8947H46.8421C48.5789 38.8947 50 37.4737 50 35.7368V8.47368C50 6.73684 48.5789 5.31579 46.8421 5.31579ZM32.1579 25.8947C33.1053 26.8421 33.1053 28.3158 32.1579 29.2632C31.6842 29.7368 31.1053 29.9474 30.4737 29.9474C29.8421 29.9474 29.2632 29.7368 28.7895 29.2632L25 25.4737L21.2105 29.2632C20.7368 29.7368 20.1579 29.9474 19.5263 29.9474C18.8947 29.9474 18.3158 29.7368 17.8421 29.2632C16.8947 28.3158 16.8947 26.8421 17.8421 25.8947L21.6316 22.1053L17.8421 18.3158C16.8947 17.3684 16.8947 15.8947 17.8421 14.9474C18.7895 14 20.2632 14 21.2105 14.9474L25 18.7368L28.7895 14.9474C29.7368 14 31.2105 14 32.1579 14.9474C33.1053 15.8947 33.1053 17.3684 32.1579 18.3158L28.3684 22.1053L32.1579 25.8947Z" fill="#9B9B9B"/>
</svg>
