<svg width="50" height="40" viewBox="0 0 50 40" fill="none" xmlns="http://www.w3.org/2000/svg">
<path d="M25.0001 16.421C19.8422 16.421 15.3159 20.5789 13.4211 22.5789C15.3159 24.5789 19.8422 28.7368 25.0001 28.7368C30.158 28.7368 34.6843 24.5789 36.579 22.5789C34.6843 20.5789 30.1054 16.421 25.0001 16.421ZM25.0001 26C23.1054 26 21.579 24.4737 21.579 22.5789C21.579 20.6842 23.1054 19.1579 25.0001 19.1579C26.8948 19.1579 28.4211 20.6842 28.4211 22.5789C28.4211 24.4737 26.8948 26 25.0001 26Z" fill="#9B9B9B"/>
<path d="M47.7895 5.47368H20.3684C19.9474 5.47368 19.5789 5.21053 19.4211 4.84211L18 1.36842C17.6842 0.526316 16.8421 0 15.9474 0H2.21053C1 0 0 1 0 2.21053V37.5263C0 38.7368 1 39.7368 2.21053 39.7368H47.7895C49 39.7368 50 38.7368 50 37.5263V7.68421C50 6.47368 49 5.47368 47.7895 5.47368ZM40.1053 23.6316C39.7895 23.9474 33.3158 32.0526 25 32.0526C16.6842 32.0526 10.2105 23.9474 9.89474 23.6316C9.42105 23.0526 9.42105 22.1579 9.89474 21.5789C10.1579 21.2105 16.6842 13.1053 25 13.1053C33.3158 13.1053 39.7895 21.2105 40.1053 21.5789C40.5789 22.1579 40.5789 23 40.1053 23.6316Z" fill="#9B9B9B"/>
</svg>
